<svg width="5929" height="1463" viewBox="0 0 5929 1463" fill="none" xmlns="http://www.w3.org/2000/svg">
<g opacity="0.1">
<path d="M5204.39 1192.76C5243.97 1125.29 5238.63 1038.62 5208.3 966.516C5177.97 894.415 5125.59 834.075 5072.32 776.794C5001.91 701.059 4926.17 626.653 4831.96 584.009C4700.67 524.578 4549.13 533.618 4406.8 556.31C4154.09 596.611 3909.04 675.967 3670.93 769.724C3415.68 870.226 3155.61 989.811 2881.58 977.456C2635.67 966.375 2466.6 848.158 2287.34 695.35C2120.14 552.83 1981.05 368.071 1774.57 275.973C1503.64 155.123 1172.71 222.822 934.989 400.304C697.272 577.787 544.36 850.168 458.451 1134.12" stroke="#F4E4BA"  stroke-width="1"/>
<path d="M5227.35 1162.83C5263.34 1104.55 5251.7 1027.22 5216.64 959.667C5181.68 892.307 5127.37 833.574 5071.66 779.739C4998.31 708.867 4920.47 637.402 4823.83 597.583C4686.49 540.976 4528.21 548.271 4380.45 568.307C4128.65 602.438 3884.99 677.212 3648.78 765.311C3397.53 859.026 3142.54 974.172 2873.19 960.068C2627.5 947.204 2455.24 833.022 2274.27 688.35C2104.96 553.632 1963.54 381.405 1758.95 297.433C1491.42 187.618 1167.48 258.391 930.523 432.796C692.578 607.584 535.559 867.955 444.192 1144.71" stroke="#F4E4BA"  stroke-width="1"/>
<path d="M5250.29 1132.89C5282.7 1083.81 5264.9 1016.03 5224.97 952.83C5185.5 890.372 5129.19 833.083 5070.98 782.707C4994.74 716.718 4914.69 648.229 4815.69 611.168C4672.2 557.452 4507.38 563.01 4354.09 580.305C4103.33 608.591 3860.98 678.456 3626.63 760.897C3379.42 847.87 3129.44 958.489 2864.81 942.67C2619.33 927.99 2444.18 817.457 2261.19 681.35C2090.07 554.069 1946.11 394.761 1743.34 318.894C1479.31 220.113 1162.25 293.961 926.055 465.299C687.871 637.392 526.746 885.742 429.92 1155.31" stroke="#F4E4BA"  stroke-width="1"/>
<path d="M5273.24 1102.96C5302.06 1063.07 5278.29 1005.01 5233.29 945.982C5189.51 888.545 5131.03 832.602 5070.31 785.664C4991.25 724.558 4908.87 659.111 4807.56 624.742C4657.84 573.961 4486.64 577.814 4327.74 592.292C4078.14 615.026 3837.04 679.7 3604.5 756.473C3361.39 836.734 3116.36 942.762 2856.43 925.271C2611.16 908.765 2432.96 802.113 2248.13 674.339C2075.03 554.673 1928.79 408.094 1727.73 340.344C1467.3 252.574 1157.03 329.531 921.601 497.78C683.188 667.166 517.957 903.507 415.672 1165.88" stroke="#F4E4BA"  stroke-width="1"/>
<path d="M5296.18 1073.02C5321.43 1042.33 5291.9 994.114 5241.62 939.134C5193.74 886.78 5132.94 832.121 5069.63 788.621C4987.8 732.397 4902.99 670.047 4799.42 638.327C4643.41 590.546 4465.95 592.715 4301.38 604.289C4053.03 621.755 3813.15 680.975 3582.35 752.048C3343.41 825.63 3103.26 926.981 2848.05 907.861C2602.97 889.507 2421.69 786.747 2235.06 667.327C2059.95 555.276 1911.55 421.437 1712.11 361.782C1455.41 285 1151.81 365.079 917.134 530.249C678.492 696.963 509.155 921.282 401.412 1176.46" stroke="#F4E4BA"  stroke-width="1"/>
<path d="M5319.13 1043.08C5340.79 1021.6 5305.74 983.279 5249.95 932.297C5198.23 885.034 5134.89 831.639 5068.96 791.578C4984.44 740.213 4897.08 681.039 4791.29 651.901C4628.94 607.188 4445.32 607.693 4275.02 616.276C4027.99 628.735 3789.34 682.25 3560.2 747.623C3325.49 814.592 3090.16 911.156 2839.66 890.463C2594.78 870.239 2410.41 771.403 2221.99 660.328C2044.86 555.902 1894.4 434.767 1696.51 383.243C1443.63 317.403 1146.95 401.169 912.679 562.752C674.154 727.269 500.354 939.058 387.152 1187.04" stroke="#F4E4BA"  stroke-width="1"/>
<path d="M5342.07 1013.15C5360.15 1000.86 5319.83 972.443 5258.28 925.449C5202.96 883.221 5136.88 831.136 5068.28 794.536C4981.11 748.019 4891.14 692.087 4783.15 665.487C4614.41 623.918 4424.74 622.769 4248.67 628.285C4003 635.977 3765.58 683.579 3538.05 743.221C3307.63 803.619 3077.06 895.31 2831.28 873.087C2586.57 850.96 2399.1 756.082 2208.92 653.339C2029.74 556.54 1877.37 448.087 1680.89 404.715C1431.97 349.762 1141.77 436.837 908.212 595.256C669.514 757.153 491.553 956.835 372.892 1197.63" stroke="#F4E4BA"  stroke-width="1"/>
<path d="M5365.02 983.215C5379.52 980.117 5334.16 961.538 5266.61 918.613C5207.91 881.306 5138.91 830.632 5067.61 797.504C4977.84 755.802 4885.17 703.201 4775.01 679.072C4599.86 640.714 4404.19 637.942 4222.3 640.283C3978.05 643.425 3741.89 684.929 3515.9 738.808C3289.82 792.699 3063.94 879.41 2822.88 855.689C2578.36 831.626 2387.77 740.75 2195.84 646.34C2014.6 557.178 1860.42 461.361 1665.26 426.177C1420.42 382.032 1136.58 472.495 903.736 627.759C664.854 787.048 482.73 974.634 358.611 1208.23" stroke="#F4E4BA"  stroke-width="1"/>
<path d="M5387.96 953.279C5398.88 959.376 5348.66 950.498 5274.94 911.763C5213.03 879.246 5140.97 830.071 5066.93 800.449C4974.62 763.517 4879.19 714.334 4766.88 692.634C4585.27 657.553 4383.67 653.19 4195.96 652.258C3953.16 651.058 3718.27 686.299 3493.77 734.361C3272.1 781.821 3050.85 863.431 2814.53 838.267C2570.18 812.248 2376.45 725.406 2182.81 639.306C1999.46 557.792 1843.63 474.545 1649.69 447.592C1409.04 414.157 1131.43 508.096 899.312 660.206C660.214 816.898 473.95 992.398 344.372 1218.79" stroke="#F4E4BA"  stroke-width="1"/>
<path d="M5410.9 923.345C5418.25 938.647 5363.31 939.284 5283.27 904.927C5218.28 877.033 5143.07 829.502 5066.26 803.418C4971.42 771.213 4873.18 725.547 4758.74 706.231C4570.66 674.492 4363.16 668.571 4169.59 664.268C3928.26 658.899 3694.7 687.747 3471.61 729.959C3254.43 771.054 3037.72 847.443 2806.13 820.88C2561.96 792.871 2365.07 710.119 2169.73 632.318C1984.28 558.453 1826.88 487.708 1634.06 469.065C1397.72 446.217 1126.23 543.743 894.824 692.721C655.553 846.761 465.138 1010.17 330.113 1229.38" stroke="#F4E4BA"  stroke-width="1"/>
<path d="M5433.86 893.408C5437.62 917.906 5378.05 927.871 5291.61 898.078C5223.61 874.643 5145.2 828.886 5065.59 806.374C4968.28 778.851 4867.19 736.779 4750.61 719.804C4556.03 691.473 4342.68 684.038 4143.24 676.253C3903.4 666.892 3671.23 689.224 3449.47 725.534C3236.82 760.36 3024.62 831.399 2797.75 803.481C2553.74 773.46 2353.69 694.83 2156.65 625.306C1969.08 559.122 1810.24 500.759 1618.44 490.514C1386.52 478.121 1121.03 579.366 890.357 725.201C650.879 876.6 456.336 1027.94 315.841 1239.95" stroke="#F4E4BA"  stroke-width="1"/>
<path d="M5456.8 863.473C5456.98 897.166 5392.83 916.261 5299.94 891.241C5228.97 872.122 5147.34 828.238 5064.92 809.331C4965.13 786.446 4861.16 748.057 4742.48 733.389C4541.4 708.531 4322.21 699.625 4116.89 688.262C3878.53 675.06 3647.8 690.789 3427.33 721.131C3219.27 749.765 3011.51 815.323 2789.37 786.104C2545.52 754.028 2342.29 679.586 2143.59 618.328C1953.88 559.837 1793.69 513.744 1602.84 511.997C1375.42 509.916 1115.84 615.012 885.902 757.714C646.219 906.473 447.547 1045.74 301.593 1250.56" stroke="#F4E4BA"  stroke-width="1"/>
<path d="M5479.75 833.536C5476.34 876.424 5407.62 904.464 5308.27 884.391C5234.32 869.458 5149.48 827.545 5064.24 812.287C4962.01 793.985 4855.15 759.376 4734.34 746.962C4526.75 725.643 4301.73 715.309 4090.53 700.247C3853.67 683.347 3624.43 692.406 3405.19 716.705C3201.77 739.244 2998.41 799.18 2780.99 768.693C2537.31 734.518 2330.88 664.329 2130.53 611.304C1938.66 560.528 1777.22 526.563 1587.23 533.423C1364.4 541.479 1110.63 650.602 881.447 790.183C641.547 936.301 438.745 1063.5 287.333 1261.13" stroke="#F4E4BA"  stroke-width="1"/>
<path d="M5502.69 803.601C5495.7 855.685 5422.39 892.494 5316.6 877.555C5239.65 866.688 5151.63 826.822 5063.58 815.255C4958.9 801.493 4849.13 770.731 4726.21 760.559C4512.11 742.833 4281.25 731.127 4064.18 712.257C3828.8 691.8 3601.12 694.124 3383.04 712.292C3184.32 728.856 2985.31 783.007 2772.61 751.306C2529.08 714.999 2319.44 649.119 2117.46 604.317C1923.42 561.277 1760.79 539.285 1571.62 554.896C1353.44 572.901 1105.42 686.217 876.981 822.686C636.853 966.142 429.945 1081.28 273.074 1271.71" stroke="#F4E4BA"  stroke-width="1"/>
<path d="M5525.63 773.666C5515.07 834.955 5437.1 880.372 5324.92 870.707C5244.94 863.818 5153.78 826.053 5062.9 818.201C4955.78 808.946 4843.1 782.095 4718.08 774.122C4497.47 760.044 4260.76 747.02 4037.83 724.232C3803.92 700.329 3577.87 695.905 3360.9 707.857C3166.92 718.543 2972.22 766.767 2764.23 733.885C2520.88 695.414 2308.01 633.908 2104.4 597.283C1908.18 562.002 1744.4 551.81 1556.02 576.323C1342.52 604.104 1100.21 721.787 872.535 855.156C632.19 995.938 421.153 1099.04 258.835 1282.28" stroke="#F4E4BA"  stroke-width="1"/>
<path d="M5548.58 743.73C5534.44 814.215 5451.76 868.119 5333.25 863.869C5250.18 860.884 5155.92 825.264 5062.23 821.169C4952.64 816.378 4837.09 793.514 4709.94 787.707C4482.82 777.343 4240.24 763.044 4011.46 736.23C3779.01 708.989 3554.63 697.818 3338.75 703.443C3149.53 708.372 2959.11 750.505 2755.83 716.498C2512.64 675.807 2296.55 618.741 2091.32 590.294C1892.92 562.794 1728.01 564.225 1540.39 597.795C1331.58 635.143 1094.97 757.389 868.058 887.659C627.474 1025.77 412.341 1116.83 244.553 1292.88" stroke="#F4E4BA"  stroke-width="1"/>
<path d="M5571.53 713.797C5553.8 793.476 5466.36 855.77 5341.58 857.023C5255.35 857.887 5158.07 824.443 5061.55 824.128C4949.51 823.767 4831.08 804.946 4701.81 801.293C4468.19 794.687 4219.72 779.191 3985.11 748.24C3754.09 717.76 3531.45 699.862 3316.6 699.042C3132.19 698.333 2946.01 734.212 2747.45 699.123C2504.44 656.169 2285.1 603.619 2078.25 583.318C1877.67 563.62 1711.62 576.5 1524.78 619.268C1320.64 666.009 1089.75 792.994 863.593 920.174C622.78 1055.59 403.541 1134.62 230.305 1303.47" stroke="#F4E4BA"  stroke-width="1"/>
<path d="M5594.47 683.86C5573.16 772.735 5480.88 843.333 5349.91 850.185C5260.48 854.866 5160.19 823.587 5060.88 827.084C4946.35 831.122 4825.06 816.398 4693.67 814.867C4453.55 812.062 4199.16 795.434 3958.75 760.226C3729.15 726.595 3508.29 702.013 3294.46 694.606C3114.87 688.39 2932.93 717.84 2739.07 681.701C2496.24 636.441 2273.66 588.484 2065.19 576.284C1862.42 564.422 1695.2 588.533 1509.18 640.695C1309.69 696.632 1084.53 828.53 859.147 952.632C618.085 1085.37 394.75 1152.37 216.056 1314.03" stroke="#F4E4BA"  stroke-width="1"/>
<path d="M5617.41 653.924C5592.52 752.004 5495.33 830.829 5358.24 843.335C5265.56 851.79 5162.29 822.698 5060.2 830.04C4943.18 838.454 4819.05 827.881 4685.53 828.45C4438.93 829.501 4178.57 811.807 3932.39 772.222C3704.18 735.527 3485.11 704.317 3272.3 690.191C3097.54 678.588 2919.84 701.435 2730.69 664.312C2488.03 616.68 2262.21 573.392 2052.11 569.294C1847.16 565.288 1678.7 600.456 1493.55 662.166C1298.62 727.136 1079.27 864.11 854.67 985.134C613.357 1115.17 385.937 1170.17 201.774 1324.63" stroke="#F4E4BA"  stroke-width="1"/>
<path d="M5640.37 623.989C5611.9 731.265 5509.73 818.286 5366.58 836.499C5270.59 848.717 5164.4 821.812 5059.54 833.009C4940 845.778 4813.07 839.388 4677.41 842.036C4424.33 846.986 4157.97 828.293 3906.05 784.221C3679.21 744.539 3461.99 706.786 3250.18 685.779C3080.23 668.93 2906.79 685 2722.32 646.915C2479.87 596.866 2250.79 558.324 2039.07 562.284C1831.94 566.157 1662.14 612.198 1477.96 683.617C1287.51 757.469 1074.04 899.66 850.225 1017.63C608.662 1144.95 377.147 1187.95 187.536 1335.22" stroke="#F4E4BA"  stroke-width="1"/>
<path d="M5663.31 594.052C5631.26 710.523 5524.06 805.697 5374.91 829.649C5275.57 845.61 5166.49 820.879 5058.86 835.964C4936.8 853.066 4807.06 850.893 4669.27 855.62C4409.73 864.501 4137.31 844.886 3879.68 796.217C3654.17 753.614 3438.8 709.406 3228.02 681.363C3062.89 659.391 2893.71 668.507 2713.93 629.526C2471.69 576.995 2239.34 543.287 2025.99 555.294C1816.69 567.067 1645.44 623.807 1462.34 705.076C1276.27 787.668 1068.79 935.206 845.748 1050.12C603.923 1174.72 368.335 1205.72 173.254 1345.79" stroke="#F4E4BA"  stroke-width="1"/>
<path d="M5686.26 564.117C5650.62 689.783 5538.33 793.089 5383.24 822.813C5280.5 842.504 5168.55 819.959 5058.19 838.922C4933.58 860.346 4801.08 862.422 4661.13 869.194C4395.13 882.051 4116.62 861.59 3853.33 808.215C3629.11 762.757 3415.58 712.203 3205.88 676.95C3045.53 649.984 2880.67 651.982 2705.55 612.138C2463.54 557.071 2227.94 528.261 2012.93 548.294C1801.48 568.001 1628.64 635.277 1446.73 726.537C1264.91 817.763 1063.54 970.744 841.293 1082.62C599.206 1204.48 359.544 1223.51 159.005 1356.39" stroke="#F4E4BA"  stroke-width="1"/>
<path d="M5709.2 534.182C5669.98 669.043 5552.55 780.459 5391.57 815.965C5285.39 839.389 5170.59 819.007 5057.51 841.879C4930.34 867.604 4795.1 873.972 4653 882.768C4380.58 899.644 4095.88 878.415 3826.97 820.202C3604.03 771.944 3392.3 715.176 3183.73 672.515C3028.12 640.687 2867.63 635.393 2697.17 594.718C2455.4 537.037 2216.52 513.236 1999.86 541.272C1786.26 568.912 1611.68 646.607 1431.13 747.976C1253.43 847.738 1058.29 1006.25 836.837 1115.09C594.478 1234.2 350.743 1241.27 144.756 1366.96" stroke="#F4E4BA"  stroke-width="1"/>
<path d="M5732.14 504.248C5689.35 648.315 5566.73 767.819 5399.89 809.129C5290.23 836.275 5172.63 818.056 5056.83 844.848C4927.06 874.874 4789.12 885.544 4644.85 896.365C4365.99 917.282 4075.08 895.361 3800.6 832.212C3578.88 781.198 3368.94 718.368 3161.57 668.113C3010.63 631.534 2854.6 618.792 2688.77 577.342C2447.28 516.972 2205.12 498.255 1986.78 534.284C1771.05 569.89 1594.55 657.874 1415.5 769.449C1241.78 877.694 1053.02 1041.78 832.359 1147.61C589.727 1263.97 341.931 1259.07 130.474 1377.57" stroke="#F4E4BA"  stroke-width="1"/>
<path d="M5755.09 474.312C5708.72 627.574 5580.87 755.179 5408.22 802.28C5295.07 833.159 5174.65 817.081 5056.16 847.793C4923.81 882.11 4783.16 897.104 4636.73 909.928C4351.47 934.917 4054.26 912.393 3774.26 844.187C3553.73 790.471 3345.48 721.703 3139.44 663.677C2993.09 622.467 2841.6 602.114 2680.4 559.921C2439.2 496.783 2193.74 483.25 1973.72 527.262C1755.86 570.833 1577.31 669.043 1399.89 790.876C1230 907.552 1047.76 1077.25 827.904 1180.06C584.999 1293.66 333.129 1276.81 116.225 1388.11" stroke="#F4E4BA"  stroke-width="1"/>
<path d="M5778.03 444.377C5728.08 606.834 5594.96 742.529 5416.55 795.444C5299.86 830.045 5176.65 816.119 5055.49 850.762C4920.51 889.358 4777.21 908.687 4628.59 923.525C4336.93 952.62 4033.37 929.57 3747.9 856.196C3528.53 799.813 3321.89 725.269 3117.3 659.275C2975.48 613.523 2828.62 585.437 2672.02 542.545C2431.15 476.564 2182.38 468.313 1960.66 520.285C1740.71 571.843 1559.89 680.194 1384.3 812.359C1218.08 937.457 1042.51 1112.77 823.46 1212.59C580.271 1323.4 324.351 1294.62 101.977 1398.74" stroke="#F4E4BA"  stroke-width="1"/>
<path d="M5800.98 414.441C5747.44 586.093 5609.03 729.878 5424.88 788.594C5304.64 826.929 5178.64 815.133 5054.81 853.718C4917.21 896.594 4771.26 920.28 4620.45 937.098C4322.41 970.331 4012.43 946.833 3721.54 868.193C3503.28 809.186 3298.13 729.022 3095.14 654.861C2957.73 604.655 2815.64 568.703 2663.62 525.157C2423.11 456.244 2171.02 453.362 1947.57 513.284C1725.53 572.84 1542.29 691.3 1368.66 833.819C1205.98 967.34 1037.22 1148.26 818.972 1245.08C575.499 1353.1 315.528 1312.41 87.696 1409.32" stroke="#F4E4BA"  stroke-width="1"/>
<path d="M5823.92 384.507C5766.8 565.354 5623.07 717.241 5433.21 781.759C5309.39 823.839 5180.62 814.151 5054.14 856.677C4913.88 903.833 4765.32 931.885 4612.31 950.673C4307.91 988.067 3991.43 964.198 3695.19 880.181C3478.02 818.584 3274.23 732.932 3073 650.427C2939.88 595.845 2802.7 551.917 2655.25 507.738C2415.15 435.795 2159.69 438.381 1934.51 506.263C1710.4 573.817 1524.57 702.368 1353.05 855.26C1193.77 997.227 1031.94 1183.71 814.515 1277.55C570.758 1382.76 306.725 1330.17 73.4455 1419.88" stroke="#F4E4BA"  stroke-width="1"/>
<path d="M5846.88 354.57C5786.17 544.624 5637.1 704.591 5441.55 774.909C5314.13 820.723 5182.61 813.165 5053.47 859.633C4910.56 911.069 4759.4 943.488 4604.19 964.257C4293.43 1005.83 3970.37 981.691 3668.84 892.178C3452.69 828.024 3250.11 737.027 3050.86 646.012C2921.91 587.11 2789.76 535.106 2646.87 490.349C2407.22 415.277 2148.39 423.451 1921.46 499.262C1695.28 574.824 1506.73 713.467 1337.46 876.708C1181.46 1027.16 1026.51 1218.76 810.072 1310.04C565.828 1411.98 297.947 1347.94 59.1974 1430.47" stroke="#F4E4BA"  stroke-width="1"/>
<path d="M5869.82 324.635C5805.54 523.884 5651.1 691.953 5449.88 768.072C5318.85 817.643 5184.56 812.181 5052.8 862.601C4907.21 918.306 4753.47 955.114 4596.04 977.842C4278.95 1023.62 3949.25 999.285 3642.48 904.175C3427.33 837.476 3225.77 741.268 3028.71 641.599C2903.79 578.423 2776.86 518.263 2638.49 472.95C2399.34 394.639 2137.23 408.925 1908.39 492.262C1680.31 576.257 1488.73 724.59 1321.84 898.169C1169 1057.13 1021.28 1254.33 805.605 1342.53C561.133 1441.77 289.134 1365.72 44.9375 1441.05" stroke="#F4E4BA"  stroke-width="1"/>
<path d="M5892.77 294.699C5824.91 503.142 5665.07 679.325 5458.21 761.223C5323.54 814.539 5186.42 810.968 5052.12 865.546C4903.75 925.282 4747.61 967.011 4587.92 991.415C4264.59 1042 3928.07 1016.97 3616.12 916.161C3401.94 846.949 3201.22 745.619 3006.57 637.173C2885.54 569.735 2764 501.375 2630.11 455.551C2391.53 373.891 2125.88 393.778 1895.33 485.25C1665.16 577.057 1470.63 735.736 1306.23 919.618C1156.44 1087.16 1016.07 1289.9 801.14 1375.02C556.439 1471.56 280.334 1383.5 30.6786 1451.64" stroke="#F4E4BA"  stroke-width="1"/>
<path d="M5915.71 264.763C5844.27 482.402 5679.02 666.698 5466.54 754.386C5328.24 811.458 5188.45 810.212 5051.45 868.514C4900.47 932.769 4741.65 978.375 4579.77 1005C4250.05 1059.25 3906.82 1034.76 3589.77 928.17C3376.5 856.468 3176.41 750.106 2984.42 632.76C2867.13 561.073 2751.17 484.466 2621.73 438.163C2383.77 353.023 2114.53 378.642 1882.26 478.262C1649.99 577.881 1452.42 746.939 1290.63 941.09C1143.79 1117.27 1010.85 1325.48 796.683 1407.53C551.743 1501.37 271.543 1401.29 16.4177 1462.23" stroke="#F4E4BA"  stroke-width="1"/>
<path d="M4937.56 967.547C4908.65 692.133 4779.81 428.295 4580.4 236.131C4523.67 181.457 4458.71 131.074 4382.02 113.039C4160.41 60.9417 3952.36 254.305 3784.34 369.802C3581.55 509.202 3381.84 653.797 3168.11 776.309C3048.12 845.093 2905.16 908.183 2775.83 859.182C2644.87 809.555 2580.76 666.344 2514.8 542.804C2437.93 398.848 2339.24 262.992 2206.38 168.213C2073.53 73.445 1902.9 23.5649 1743.77 59.7481C1619.15 88.0753 1511.49 165.32 1414.67 248.739C1160.25 467.924 954.322 743.081 815.753 1048.97" stroke="#F4E4BA"  stroke-width="1"/>
<path d="M4943.09 954.866C4915.11 688.332 4784.02 438.774 4580.96 246.697C4524.26 193.071 4460.04 143.247 4384.41 124.915C4165.44 71.695 3960.06 255.689 3792.43 367.248C3613.7 486.191 3437.27 611.158 3249.52 722.42C3226.44 736.148 3203.22 749.66 3179.84 762.911C3060.75 830.428 2919.51 892.581 2791.51 846.305C2661.82 799.47 2596.9 662.134 2530.24 543.791C2452.38 405.974 2353.49 275.952 2221.64 185.443C2089.45 95.0686 1920.81 47.852 1763.4 83.3923C1656.43 107.525 1561.83 166.889 1475.74 234.497C1462.41 244.954 1449.36 255.691 1436.37 266.363C1178.59 478.094 973.209 732.099 839.112 1028.12" stroke="#F4E4BA"  stroke-width="1"/>
<path d="M4948.62 942.185C4921.58 684.542 4788.26 449.242 4581.53 257.274C4524.88 204.674 4461.39 155.442 4386.8 136.803C4170.48 82.4595 3967.76 257.094 3800.51 364.717C3623.52 478.604 3448.62 600.375 3260.72 709.836C3237.81 723.289 3214.77 736.537 3191.57 749.546C3073.38 815.796 2933.84 877.011 2807.17 833.461C2678.76 789.429 2613.01 657.957 2545.67 544.821C2466.81 413.154 2367.72 288.946 2236.86 202.717C2105.33 116.726 1938.69 72.1835 1783 107.092C1676.99 130.831 1582.99 188.32 1497.29 253.4C1484 263.463 1471.05 273.872 1458.04 284.041C1196.75 488.343 992.075 721.184 862.437 1007.34" stroke="#F4E4BA"  stroke-width="1"/>
<path d="M4954.15 929.516C4928.04 680.752 4792.54 459.699 4582.1 267.85C4525.52 216.265 4462.73 167.626 4389.2 148.691C4175.51 93.2239 3975.51 258.51 3808.61 362.175C3633.37 471.017 3459.7 589.103 3271.93 697.252C3249.15 710.376 3226.32 723.414 3203.3 736.169C3086.02 801.153 2948.19 861.43 2822.86 820.617C2695.72 779.377 2629.38 653.646 2561.11 545.851C2481.51 420.157 2382.2 301.598 2252.11 219.991C2121.46 138.041 1956.59 96.5146 1802.64 130.791C1697.59 154.136 1604.2 209.761 1518.86 272.304C1505.61 281.973 1492.77 292.053 1479.75 301.72C1214.83 498.593 1010.97 710.257 885.815 986.548" stroke="#F4E4BA"  stroke-width="1"/>
<path d="M4959.68 916.835C4934.5 676.962 4796.86 470.133 4582.67 278.416C4526.16 227.835 4464.07 179.799 4391.59 160.568C4180.55 103.966 3983.28 259.903 3816.69 359.622C3643.26 463.43 3470.97 578.146 3283.13 684.658C3260.51 697.485 3237.85 710.28 3215.02 722.782C3098.64 786.51 2962.52 845.839 2838.51 807.751C2712.64 769.304 2645.55 649.392 2576.52 546.849C2496 427.238 2396.48 314.448 2267.33 237.221C2137.42 159.545 1974.48 120.802 1822.25 154.435C1718.14 177.387 1625.36 231.148 1540.4 291.152C1527.21 300.428 1514.45 310.168 1501.43 319.354C1232.72 508.802 1029.83 699.298 909.141 965.717" stroke="#F4E4BA"  stroke-width="1"/>
<path d="M4965.21 904.155C4940.96 673.162 4801.2 480.546 4583.24 288.983C4526.82 239.406 4465.41 191.984 4393.99 172.446C4185.59 114.721 3991.1 261.319 3824.79 357.081C3653.19 455.886 3482.26 567.212 3294.34 672.064C3271.88 684.595 3249.4 697.147 3226.75 709.396C3111.28 771.857 2976.87 830.248 2854.2 794.897C2729.59 759.242 2661.75 645.15 2591.97 547.869C2510.53 434.331 2410.78 327.322 2282.58 254.485C2153.37 181.082 1992.37 145.123 1841.87 178.125C1738.72 200.672 1646.54 252.569 1561.96 310.046C1548.8 318.928 1536.12 328.339 1523.11 337.023C1250.48 519.024 1048.69 688.362 932.476 944.909" stroke="#F4E4BA"  stroke-width="1"/>
<path d="M4970.74 891.475C4947.43 669.362 4805.58 490.936 4583.8 299.561C4527.48 250.965 4466.75 204.169 4396.38 184.334C4190.62 125.486 3998.93 262.756 3832.87 354.539C3663.13 448.353 3493.54 556.277 3305.54 659.481C3283.24 671.726 3260.95 684.014 3238.48 696.031C3123.91 757.225 2991.21 814.679 2869.86 782.054C2746.53 749.201 2677.93 640.918 2607.39 548.9C2525.02 441.435 2425.05 340.217 2297.81 271.76C2169.31 202.63 2010.26 169.444 1861.48 201.825C1759.3 223.978 1667.72 274.012 1583.51 328.95C1570.41 337.438 1557.8 346.499 1544.8 354.702C1268.12 529.237 1067.58 677.446 955.824 924.122" stroke="#F4E4BA"  stroke-width="1"/>
<path d="M4976.27 878.794C4953.89 665.571 4810.01 501.292 4584.37 310.126C4528.17 262.512 4468.05 216.495 4398.78 196.21C4195.53 136.666 4006.81 264.192 3840.98 351.985C3673.15 440.84 3504.86 545.34 3316.76 646.885C3294.62 658.833 3272.51 670.879 3250.23 682.643C3136.56 742.581 3005.56 799.087 2885.56 769.187C2763.5 739.127 2694.13 636.652 2622.86 549.896C2539.55 448.504 2439.36 353.067 2313.07 289C2185.27 224.154 2028.19 193.742 1881.14 225.479C1779.91 247.239 1689.04 295.582 1605.1 347.797C1592.04 355.914 1579.5 364.614 1566.51 372.336C1285.64 539.361 1086.47 666.475 979.192 903.29" stroke="#F4E4BA"  stroke-width="1"/>
<path d="M4981.8 866.113C4960.36 661.77 4814.46 511.626 4584.93 320.691C4528.85 274.037 4469.38 228.69 4401.17 208.076C4200.54 147.452 4014.7 265.638 3849.07 349.432C3683.16 433.359 3516.15 534.427 3327.96 634.28C3305.98 645.942 3284.05 657.734 3261.94 669.245C3149.17 727.916 3019.9 783.484 2901.21 756.322C2780.43 729.053 2710.28 632.388 2638.27 550.904C2554.02 455.574 2453.61 365.95 2328.3 306.241C2201.19 245.679 2046.06 218.04 1900.74 249.145C1800.47 270.512 1710.21 317.002 1626.64 366.668C1613.63 374.401 1601.14 382.74 1588.19 389.981C1302.97 549.435 1105.34 655.526 1002.53 882.469" stroke="#F4E4BA"  stroke-width="1"/>
<path d="M4987.33 853.432C4966.81 657.979 4818.95 521.927 4585.51 331.257C4529.56 285.563 4470.72 240.885 4403.57 219.952C4205.58 158.249 4022.63 267.106 3857.16 346.878C3693.23 425.901 3527.47 523.502 3339.17 621.685C3317.35 633.061 3295.61 644.6 3273.68 655.857C3161.82 713.262 3034.24 767.892 2916.9 743.456C2797.38 718.99 2726.46 628.123 2653.72 551.913C2568.51 462.645 2467.88 378.823 2343.55 323.493C2217.12 267.227 2063.98 242.349 1920.37 272.811C1821.06 293.774 1731.41 338.432 1648.22 385.538C1635.25 392.878 1622.82 400.856 1609.9 407.627C1320.21 559.433 1124.23 644.567 1025.9 861.649" stroke="#F4E4BA"  stroke-width="1"/>
<path d="M4992.86 840.764C4973.27 654.191 4823.46 532.219 4586.07 341.847C4530.26 297.101 4472.05 253.093 4405.96 231.853C4210.59 169.06 4030.6 268.63 3865.25 344.349C3703.33 418.509 3538.78 512.622 3350.37 609.103C3328.72 620.193 3307.14 631.479 3285.4 642.494C3174.45 698.643 3048.58 752.335 2932.56 730.624C2814.32 708.951 2742.61 623.881 2669.14 552.945C2582.96 469.739 2482.12 391.741 2358.77 340.769C2233.01 288.798 2081.85 266.682 1939.97 296.513C1841.62 317.081 1752.58 359.887 1669.75 404.443C1656.83 411.389 1644.44 419.006 1631.56 425.318C1337.25 569.402 1143.08 633.664 1049.21 840.874" stroke="#F4E4BA"  stroke-width="1"/>
<path d="M4998.39 828.082C4979.74 650.389 4828.01 542.464 4586.64 352.411C4530.99 308.592 4473.39 265.287 4408.36 243.728C4215.62 179.845 4038.61 270.151 3873.34 341.795C3713.46 411.114 3550.11 501.729 3361.58 596.507C3340.09 607.311 3318.69 618.344 3297.14 629.105C3187.09 683.988 3062.93 736.743 2948.25 717.757C2831.28 698.876 2758.77 619.616 2684.58 553.952C2597.43 476.798 2496.36 404.635 2374.03 358.02C2248.93 310.344 2099.76 290.979 1959.61 320.189C1862.22 340.363 1773.79 381.316 1691.33 423.323C1678.46 429.876 1666.11 437.132 1653.28 442.973C1354.23 579.216 1161.99 622.725 1072.59 820.064" stroke="#F4E4BA"  stroke-width="1"/>
<path d="M5003.92 815.404C4986.2 646.601 4832.6 552.668 4587.2 362.979C4531.71 320.086 4474.72 277.473 4410.75 255.608C4220.63 190.623 4046.63 271.708 3881.43 339.255C3723.62 403.787 3561.42 490.861 3372.78 583.926C3351.45 594.444 3330.24 605.223 3308.85 615.731C3199.71 669.347 3077.29 720.924 2963.9 704.916C2848.24 688.585 2774.88 615.375 2700.01 554.984C2611.86 483.893 2510.58 417.565 2389.25 375.285C2264.8 331.927 2117.63 315.302 1979.21 343.868C1882.77 363.65 1794.95 402.749 1712.87 442.207C1700.04 448.377 1687.72 455.239 1674.94 460.632C1371.03 588.915 1180.83 611.779 1095.9 799.257" stroke="#F4E4BA"  stroke-width="1"/>
<path d="M5009.45 802.722C4992.67 642.799 4837.22 562.835 4587.77 373.544C4532.46 331.566 4476.05 289.656 4413.15 267.483C4225.66 201.397 4054.7 273.293 3889.54 336.7C3733.83 396.478 3572.78 479.978 3384 571.318C3362.85 581.551 3341.8 592.077 3320.6 602.331C3212.36 654.691 3091.64 705.309 2979.6 692.037C2865.2 678.488 2791.02 611.099 2715.46 555.969C2626.31 490.94 2524.82 430.448 2404.51 392.513C2280.71 353.473 2135.56 339.588 1998.86 367.522C1903.38 386.899 1816.15 424.157 1734.45 461.065C1721.67 466.841 1709.38 473.321 1696.66 478.276C1387.77 598.459 1199.73 600.829 1119.27 778.435" stroke="#F4E4BA"  stroke-width="1"/>
<path d="M5014.98 790.041C4999.12 639.009 4841.88 572.959 4588.33 384.12C4533.19 343.058 4477.39 301.851 4415.54 279.37C4230.68 212.172 4062.79 274.923 3897.62 334.157C3744.05 389.225 3584.11 469.129 3395.2 558.734C3374.2 568.692 3353.34 578.953 3332.33 588.966C3224.99 640.059 3105.98 689.727 2995.26 679.193C2882.13 668.436 2807.12 606.856 2730.89 556.999C2640.72 498.033 2539.02 443.397 2419.73 409.787C2296.56 375.076 2153.44 363.918 2018.46 391.221C1923.93 410.204 1837.31 445.609 1755.98 479.968C1743.25 485.35 1730.99 491.447 1718.33 495.955C1404.36 607.874 1218.59 589.902 1142.6 757.647" stroke="#F4E4BA"  stroke-width="1"/>
<path d="M5020.51 777.36C5005.59 635.208 4846.57 583.05 4588.91 394.686C4533.96 354.517 4478.73 314.024 4417.94 291.247C4235.7 222.936 4070.92 276.596 3905.72 331.615C3754.32 382.026 3595.47 458.291 3406.41 546.15C3385.59 555.822 3364.89 565.83 3344.07 575.589C3237.63 625.415 3120.33 674.136 3010.95 666.349C2899.08 658.373 2823.24 602.624 2746.33 558.029C2655.13 505.137 2553.24 456.358 2434.99 427.061C2312.44 396.7 2171.35 388.249 2038.11 414.909C1944.53 433.499 1858.51 467.05 1777.57 498.849C1764.87 503.837 1752.63 509.53 1740.04 513.611C1420.91 617.105 1237.49 578.964 1165.98 736.837" stroke="#F4E4BA"  stroke-width="1"/>
<path d="M5026.04 764.681C5012.05 631.419 4851.28 593.088 4589.47 405.253C4534.71 365.967 4480.06 326.21 4420.33 303.125C4240.72 233.702 4079.07 278.325 3913.8 329.063C3764.6 374.872 3606.82 447.454 3417.61 533.546C3396.96 542.943 3376.43 552.676 3355.78 562.193C3250.24 610.763 3134.65 658.535 3026.6 653.474C2916 648.29 2839.3 598.373 2761.75 559.017C2669.5 512.21 2567.42 469.288 2450.21 444.282C2328.28 418.271 2189.23 412.517 2057.71 438.555C1965.1 456.74 1879.67 488.439 1799.1 517.7C1786.44 522.294 1774.23 527.583 1761.7 531.247C1437.32 626.109 1256.33 567.996 1189.29 716.008" stroke="#F4E4BA"  stroke-width="1"/>
<path d="M5031.57 752C5018.52 627.618 4856.04 603.091 4590.04 415.819C4535.49 377.415 4481.4 338.383 4422.74 314.991C4245.76 244.434 4087.26 280.085 3921.9 326.5C3774.91 367.76 3618.19 436.616 3428.82 520.941C3408.34 530.062 3387.98 539.532 3367.52 548.795C3262.88 596.099 3148.98 642.933 3042.28 640.608C2932.96 638.227 2855.39 594.142 2777.2 560.025C2683.89 519.315 2581.63 482.249 2465.46 461.534C2344.15 439.896 2207.13 436.826 2077.34 462.233C1985.69 480.024 1900.86 509.859 1820.68 536.581C1808.06 540.782 1795.86 545.655 1783.42 548.904C1453.72 634.938 1275.24 557.058 1212.66 695.198" stroke="#F4E4BA"  stroke-width="1"/>
<path d="M5037.1 739.332C5024.98 623.83 4860.83 613.041 4590.6 426.409C4536.26 388.876 4482.74 350.58 4425.13 326.892C4250.78 255.211 4095.45 281.945 3929.98 323.981C3785.24 360.748 3629.56 425.845 3440.02 508.37C3419.7 517.216 3399.53 526.421 3379.24 535.442C3275.51 581.479 3163.31 627.376 3057.95 627.777C2949.89 628.188 2871.44 589.957 2792.62 561.068C2698.24 526.476 2595.82 495.266 2480.7 478.82C2359.99 461.577 2225.03 461.17 2096.96 485.933C2006.27 503.331 1922.03 531.302 1842.24 555.486C1829.67 559.293 1817.48 563.74 1805.11 566.584C1470.06 643.571 1294.12 546.133 1236.01 674.412" stroke="#F4E4BA"  stroke-width="1"/>
<path d="M5042.63 726.652C5031.44 620.04 4865.64 622.945 4591.17 436.975C4537.04 400.291 4484.08 362.753 4427.53 338.769C4255.82 265.943 4103.69 283.847 3938.08 321.428C3795.59 353.756 3640.93 415.051 3451.23 495.775C3431.08 504.346 3411.08 513.287 3390.98 522.055C3288.15 566.836 3177.65 611.784 3073.63 614.911C2966.83 618.126 2887.51 585.748 2808.07 562.066C2712.61 533.614 2610 508.249 2495.94 496.061C2375.84 483.224 2242.92 485.468 2116.58 509.6C2026.85 526.604 1943.21 552.701 1863.8 574.357C1851.27 577.77 1839.1 581.791 1826.79 584.241C1486.35 651.953 1312.98 535.196 1259.34 653.603" stroke="#F4E4BA"  stroke-width="1"/>
<path d="M5048.16 713.97C5037.9 616.238 4870.49 632.782 4591.74 447.539C4537.82 411.705 4485.41 374.925 4429.91 350.644C4260.84 276.684 4111.9 285.823 3946.17 318.873C3805.95 346.827 3652.31 404.266 3462.43 483.179C3442.46 491.475 3422.61 500.152 3402.7 508.666C3300.78 552.181 3191.99 596.202 3089.3 602.055C2983.76 608.061 2903.56 581.581 2823.49 563.083C2726.95 540.783 2624.18 521.275 2511.17 513.312C2391.68 504.891 2260.81 509.776 2136.2 533.276C2047.42 549.876 1964.37 574.108 1885.35 593.237C1872.86 596.256 1860.71 599.84 1848.48 601.896C1502.65 660.082 1331.86 524.246 1282.69 632.792" stroke="#F4E4BA"  stroke-width="1"/>
<path d="M5053.69 701.289C5044.37 612.448 4875.37 642.576 4592.31 458.105C4538.62 423.12 4486.76 387.098 4432.31 362.521C4265.88 287.404 4120.15 287.878 3954.26 316.32C3816.32 339.966 3663.7 393.504 3473.64 470.573C3453.84 478.605 3434.17 487.007 3414.43 495.268C3313.41 537.516 3206.32 580.611 3104.97 589.178C3000.7 597.998 2919.63 577.405 2838.93 564.081C2741.31 547.964 2638.37 534.29 2526.42 530.553C2407.52 526.581 2278.71 534.074 2155.82 556.931C2068 573.138 1985.55 595.496 1906.91 612.096C1894.46 614.722 1882.32 617.858 1870.16 619.531C1518.94 667.951 1350.74 513.286 1306.04 611.961" stroke="#F4E4BA"  stroke-width="1"/>
<path d="M5059.22 688.609C5050.83 608.647 4880.28 652.305 4592.87 468.682C4539.41 434.525 4488.09 399.272 4434.7 374.409C4270.91 298.137 4128.4 290.031 3962.35 313.789C3826.68 333.192 3675.09 382.786 3484.84 458.001C3465.21 465.758 3445.71 473.896 3426.16 481.903C3326.03 522.895 3220.65 565.052 3120.65 576.346C3017.65 587.969 2935.69 573.284 2854.37 565.111C2755.67 555.2 2652.57 547.372 2541.66 547.828C2423.38 548.316 2296.61 558.395 2175.45 580.631C2088.59 596.444 2006.73 616.916 1928.48 631C1916.08 633.232 1903.95 635.92 1891.88 637.22C1535.29 675.611 1369.63 502.382 1329.41 591.185" stroke="#F4E4BA"  stroke-width="1"/>
<path d="M5064.75 675.928C5057.3 604.857 4885.22 661.967 4593.44 479.248C4540.21 445.918 4489.45 411.434 4437.1 386.286C4275.97 308.846 4136.65 292.259 3970.44 311.236C3837.05 326.462 3686.49 372.057 3496.05 445.406C3476.59 452.899 3457.26 460.762 3437.89 468.526C3338.67 508.252 3234.99 549.494 3136.32 563.491C3034.59 577.928 2951.75 569.162 2869.81 566.131C2770.03 562.436 2666.76 560.442 2556.9 565.09C2439.24 570.06 2314.52 582.715 2195.07 604.319C2109.17 619.738 2027.89 638.325 1950.04 649.892C1937.67 651.731 1925.57 653.96 1913.56 654.888C1551.66 682.998 1388.5 491.444 1352.74 570.386" stroke="#F4E4BA"  stroke-width="1"/>
<path d="M5070.28 663.249C5063.75 601.058 4890.2 671.576 4594 489.816C4541.01 457.291 4490.78 423.599 4439.49 398.165C4281.02 319.558 4144.89 294.589 3978.53 308.685C3847.41 319.799 3697.89 361.341 3507.25 432.803C3487.96 440.031 3468.81 447.619 3449.62 455.13C3351.31 493.589 3249.34 533.904 3152 550.616C3051.53 567.867 2967.83 565.042 2885.24 567.13C2784.41 569.673 2680.96 573.525 2572.14 582.323C2455.1 591.796 2332.4 607.005 2214.69 627.965C2129.73 642.98 2049.06 659.692 1971.59 668.732C1959.26 670.166 1947.18 671.936 1935.24 672.503C1568.09 690.08 1407.36 480.465 1376.08 549.535" stroke="#F4E4BA"  stroke-width="1"/>
<path d="M5075.81 650.579C5070.22 597.267 4895.2 681.128 4594.58 500.392C4541.82 468.673 4492.14 435.771 4441.89 410.041C4286.07 330.256 4153.11 297.014 3986.62 306.142C3857.75 313.21 3709.3 350.665 3518.46 420.218C3499.34 427.183 3480.36 434.484 3461.34 441.753C3363.94 478.956 3263.7 518.53 3167.66 537.771C3068.51 558.022 2983.9 560.963 2900.66 568.148C2798.79 576.952 2695.16 586.627 2587.37 599.585C2470.96 613.573 2350.29 631.324 2234.3 651.653C2150.3 666.274 2070.22 681.09 1993.13 687.624C1980.86 688.664 1968.79 689.964 1956.92 690.18C1584.61 696.962 1426.24 469.538 1399.41 528.747" stroke="#F4E4BA"  stroke-width="1"/>
<path d="M5081.34 637.898C5076.68 593.478 4900.24 690.604 4595.14 510.969C4542.62 480.044 4493.48 447.944 4444.28 421.929C4291.13 340.965 4161.3 299.55 3994.71 303.6C3868.06 306.677 3720.71 340.002 3529.66 407.624C3510.73 414.324 3491.89 421.351 3473.07 428.366C3376.57 464.302 3278.05 502.938 3183.34 524.906C3085.45 547.959 3000.01 556.863 2916.1 569.157C2813.2 584.231 2709.38 599.752 2602.61 616.837C2486.85 635.361 2368.19 655.634 2253.93 675.33C2170.9 689.558 2091.41 702.477 2014.71 706.505C2002.47 707.152 1990.44 707.971 1978.62 707.837C1601.25 703.57 1445.13 458.6 1422.77 507.938" stroke="#F4E4BA"  stroke-width="1"/>
<path d="M5086.87 625.217C5083.15 589.676 4905.3 700.002 4595.71 521.534C4543.44 491.404 4494.83 460.095 4446.68 433.805C4296.2 351.642 4169.47 302.172 4002.82 301.046C3878.37 300.209 3732.15 329.348 3540.89 395.029C3522.12 401.476 3503.46 408.216 3484.82 414.989C3389.22 449.659 3292.4 487.357 3199.02 512.061C3102.41 537.907 3016.14 552.795 2931.55 570.187C2827.64 591.542 2723.64 612.898 2617.87 634.1C2502.77 657.181 2386.1 679.943 2273.56 699.007C2191.49 712.841 2112.6 723.864 2036.28 725.386C2024.09 725.628 2012.1 725.977 2000.33 725.493C1618.02 709.947 1464.01 447.652 1446.14 487.128" stroke="#F4E4BA"  stroke-width="1"/>
<path d="M5092.4 612.538C5089.61 585.887 4910.39 709.336 4596.27 532.101C4544.25 502.744 4496.23 472.171 4449.07 445.683C4301.42 362.066 4177.57 304.906 4010.9 298.505C3888.6 293.798 3743.56 318.729 3552.09 382.446C3533.49 388.629 3515 395.094 3496.54 401.614C3401.85 435.028 3306.74 471.778 3214.7 499.207C3119.35 527.845 3032.27 548.728 2946.99 571.196C2842.09 598.832 2737.89 626.045 2633.11 651.353C2518.67 679.003 2403.99 704.253 2293.19 722.686C2212.07 736.115 2133.78 745.11 2057.84 744.269C2045.69 744.095 2033.73 743.974 2022.02 743.162C1634.91 716.106 1482.89 436.726 1469.49 466.33" stroke="#F4E4BA"  stroke-width="1"/>
<path d="M5097.93 599.857C5096.06 582.086 4915.51 718.592 4596.84 542.667C4545.06 514.082 4497.57 484.343 4451.47 457.559C4306.46 372.808 4185.65 307.749 4019 295.952C3898.81 287.44 3754.99 308.13 3563.3 369.84C3544.87 375.77 3526.55 381.949 3508.27 388.216C3414.47 420.363 3321.07 456.175 3230.36 486.33C3136.29 517.76 3048.41 544.638 2962.41 572.193C2856.54 606.121 2752.15 639.179 2648.33 668.594C2534.59 700.823 2421.88 728.551 2312.79 746.352C2232.63 759.388 2154.94 766.519 2079.38 763.139C2067.27 762.572 2055.36 761.969 2043.69 760.807C1651.92 722.021 1501.75 425.766 1492.81 445.51" stroke="#F4E4BA"  stroke-width="1"/>
<path d="M5103.48 587.177C5102.54 578.297 4920.67 727.772 4597.43 553.244C4545.9 525.421 4498.93 496.539 4453.88 469.448C4311.51 383.574 4193.66 310.713 4027.11 293.41C3908.97 281.139 3766.51 297.804 3574.52 357.257C3556.28 362.955 3538.12 368.827 3520.02 374.84C3427.13 405.72 3335.44 440.595 3246.06 473.487C3153.26 507.72 3064.63 540.69 2977.87 573.224C2871.09 613.574 2766.52 652.554 2663.6 685.868C2550.64 722.883 2439.8 752.883 2332.44 770.041C2253.24 782.683 2176.16 787.939 2100.97 782.032C2088.9 781.071 2077.03 779.966 2065.4 778.476C1669.15 727.75 1520.65 414.841 1516.18 424.701" stroke="#F4E4BA"  stroke-width="1"/>
<path d="M5109.01 574.496C5109.01 574.496 4925.83 736.864 4597.99 563.81C4270.15 390.756 4139.76 178.392 3585.72 344.663C3031.68 510.933 2549.88 849.164 2122.52 800.902C1695.16 752.64 1539.53 403.892 1539.53 403.892" stroke="#F4E4BA"  stroke-width="1"/>
<path d="M5355.2 460.043C5320.85 370.984 5222.73 319.004 5127.44 313.202C5032.15 307.401 4938.85 339.444 4850.48 375.536C4667.7 450.16 4492.75 544.035 4306.14 608.46C4119.53 672.884 3915.54 706.855 3724.48 657.139C3607.01 626.577 3498.7 565.564 3380.01 540.215C3142 489.371 2900.5 586.849 2659.09 617.678C2476.44 640.999 2406.71 553.875 2303.3 425.173C2202.91 300.237 2055.57 213.963 1897.49 187.549C1739.4 161.135 1572.02 194.838 1436.47 280.363" stroke="#F4E4BA"  stroke-width="1"/>
<path d="M5358.5 447.411C5320.49 363.966 5220.32 315.243 5123.54 312.528C5026.6 309.914 4931.43 343.77 4840.63 380.6C4656.97 455.279 4480.04 546.971 4292.64 606.883C4105.95 667.049 3903.47 695.267 3712.29 645.553C3595.23 615.106 3486.85 556.147 3368.51 531.952C3131.35 483.424 2890.95 579.436 2650.5 610.014C2468.92 633.115 2396.48 548.851 2291.66 423.225C2190.66 301.442 2044.53 215.918 1887.87 193.037C1731.54 169.911 1567.1 206.026 1432.8 291.504" stroke="#F4E4BA"  stroke-width="1"/>
<path d="M5361.81 434.768C5320.16 356.947 5217.92 311.459 5119.65 311.832C5021.06 312.404 4924.03 348.063 4830.81 385.653C4646.25 460.386 4467.22 549.46 4279.18 605.284C4092.27 660.766 3891.43 683.646 3700.14 633.933C3583.47 603.612 3475.03 546.686 3357.03 523.655C3120.73 477.444 2881.42 571.991 2641.94 602.328C2461.42 625.208 2385.91 544.138 2280.03 421.244C2178.09 302.912 2033.51 217.839 1878.27 198.48C1723.68 178.644 1562.17 217.171 1429.14 302.6" stroke="#F4E4BA"  stroke-width="1"/>
<path d="M5365.12 422.124C5319.81 349.916 5215.52 307.686 5115.74 311.145C5015.51 314.904 4916.61 352.376 4820.96 390.705C4635.52 465.492 4454.47 552.176 4265.68 603.683C4078.66 654.711 3879.37 672.035 3687.96 622.313C3571.7 592.107 3463.19 537.235 3345.53 515.369C3110.07 471.474 2871.86 564.544 2633.35 594.651C2453.9 617.312 2375.52 539.268 2268.38 419.283C2165.66 304.259 2022.41 220.186 1868.64 203.955C1715.77 187.813 1557.22 228.358 1425.45 313.74" stroke="#F4E4BA"  stroke-width="1"/>
<path d="M5368.43 409.48C5319.48 342.896 5213.12 303.902 5111.85 310.459C5009.97 317.405 4909.2 356.679 4811.12 395.768C4624.79 470.61 4441.73 554.925 4252.21 602.094C4065.07 648.678 3867.33 660.424 3675.8 610.703C3559.93 580.613 3451.36 527.784 3334.05 507.083C3099.44 465.504 2862.33 557.109 2624.78 586.964C2446.4 609.405 2365.16 534.376 2256.75 417.311C2153.3 305.584 2011.39 222.249 1859.04 209.409C1707.91 196.676 1552.3 239.512 1421.79 324.847" stroke="#F4E4BA"  stroke-width="1"/>
<path d="M5371.73 396.85C5319.13 335.88 5210.71 300.142 5107.94 309.786C5004.4 319.92 4901.78 361.007 4801.27 400.846C4614.03 475.741 4428.98 557.688 4238.7 600.519C4051.46 642.669 3855.24 648.838 3663.6 599.108C3548.14 569.144 3439.5 518.359 3322.54 498.811C3088.79 459.549 2852.76 549.677 2616.18 579.302C2438.87 601.523 2354.78 529.52 2245.1 415.365C2140.91 306.934 2000.34 224.326 1849.41 214.899C1700.04 205.574 1547.35 250.703 1418.11 336.001" stroke="#F4E4BA"  stroke-width="1"/>
<path d="M5375.05 384.206C5318.8 328.86 5208.28 296.129 5104.05 309.099C4998.84 322.19 4894.38 365.32 4791.44 405.897C4603.32 480.847 4416.28 560.437 4225.23 598.929C4037.9 636.668 3843.21 637.227 3651.46 587.509C3536.39 557.66 3427.69 508.918 3311.07 490.535C3078.17 453.589 2843.23 542.252 2607.63 571.625C2431.38 593.626 2344.47 524.639 2233.49 413.404C2128.58 308.269 1989.34 226.377 1839.82 220.374C1692.2 214.447 1542.45 261.89 1414.46 347.129" stroke="#F4E4BA"  stroke-width="1"/>
<path d="M5378.35 371.561C5318.45 321.828 5205.87 292.333 5100.14 308.412C4993.28 324.668 4886.96 369.622 4781.59 410.96C4592.58 485.963 4403.56 563.217 4211.74 597.339C4024.33 630.666 3831.13 625.626 3639.28 575.898C3524.61 546.165 3415.83 499.477 3299.57 482.247C3067.51 447.618 2833.68 534.816 2599.04 563.948C2423.86 585.729 2334.14 519.756 2221.83 411.432C2116.23 309.581 1978.3 228.417 1830.19 225.827C1684.33 223.287 1537.49 273.043 1410.77 358.246" stroke="#F4E4BA"  stroke-width="1"/>
<path d="M5381.66 358.92C5318.12 314.811 5203.45 288.54 5096.25 307.728C4987.71 327.16 4879.48 373.709 4771.76 416.014C4581.71 490.67 4390.86 566.001 4198.26 595.741C4010.78 624.69 3819.09 614.018 3627.11 564.28C3512.85 534.663 3404 490.018 3288.09 473.964C3056.88 441.64 2824.14 527.372 2590.46 556.264C2416.35 577.835 2323.83 514.866 2210.2 409.463C2103.92 310.886 1967.29 230.438 1820.59 231.294C1676.5 232.13 1532.58 284.211 1407.1 369.366" stroke="#F4E4BA"  stroke-width="1"/>
<path d="M5384.98 346.287C5317.78 307.792 5201.05 284.757 5092.35 307.053C4982.16 329.661 4872.06 378.013 4761.92 421.089C4570.97 495.777 4378.18 568.826 4184.78 594.164C3997.23 618.733 3807.03 602.418 3614.94 552.682C3501.08 523.191 3392.17 480.589 3276.59 465.689C3046.24 435.682 2814.59 519.948 2581.87 548.599C2408.83 569.95 2313.53 509.985 2198.55 407.514C2091.6 312.211 1956.28 232.479 1810.96 236.77C1668.65 240.971 1527.63 295.399 1403.42 380.495" stroke="#F4E4BA"  stroke-width="1"/>
<path d="M5388.28 333.643C5317.43 300.772 5198.64 280.962 5088.46 306.366C4976.61 332.151 4864.65 382.304 4752.09 426.152C4560.24 500.872 4365.5 571.651 4171.3 592.574C3983.71 612.797 3794.99 590.818 3602.78 541.084C3489.31 511.708 3380.34 471.149 3265.11 457.413C3035.6 429.723 2805.05 512.512 2573.31 540.934C2401.33 562.064 2303.27 505.092 2186.92 405.564C2079.32 313.513 1945.27 234.509 1801.35 242.256C1660.81 249.811 1522.71 306.586 1399.75 391.646" stroke="#F4E4BA"  stroke-width="1"/>
<path d="M5391.59 321C5317.1 293.742 5196.23 277.179 5084.56 305.681C4971.05 334.642 4857.23 386.608 4742.25 431.205C4549.51 505.969 4352.82 574.477 4157.81 590.986C3970.17 606.862 3782.93 579.208 3590.6 529.475C3477.54 500.215 3368.5 461.7 3253.62 449.128C3024.96 423.754 2795.5 505.078 2564.73 533.248C2393.82 554.158 2293.01 500.167 2175.29 403.594C2067.05 314.794 1934.27 236.506 1791.75 247.711C1652.99 258.62 1517.78 317.742 1396.09 402.754" stroke="#F4E4BA"  stroke-width="1"/>
<path d="M5394.89 308.355C5316.75 286.722 5193.82 273.405 5080.65 304.994C4965.49 337.141 4849.81 390.91 4732.4 436.268C4538.77 511.075 4340.14 577.334 4144.32 589.396C3956.62 600.959 3770.86 567.608 3578.42 517.865C3465.75 488.731 3356.65 452.259 3242.12 440.852C3014.31 417.794 2785.95 497.642 2556.14 525.582C2386.31 546.272 2282.76 495.252 2163.64 401.632C2054.78 316.073 1923.26 238.502 1782.12 253.186C1645.15 267.427 1512.84 328.928 1392.41 413.893" stroke="#F4E4BA"  stroke-width="1"/>
<path d="M5398.21 295.724C5316.42 279.715 5191.41 269.633 5076.76 304.32C4959.93 339.654 4842.4 395.226 4722.57 441.332C4528.05 516.193 4327.47 580.215 4130.84 587.808C3943.11 595.057 3758.82 555.998 3566.27 506.257C3454.01 477.238 3344.83 442.81 3230.64 432.567C3003.69 411.826 2776.41 490.208 2547.58 517.896C2378.81 538.366 2272.53 490.305 2152.02 399.662C2042.55 317.332 1912.28 240.479 1772.52 258.641C1637.34 276.214 1507.92 340.084 1388.75 425.001" stroke="#F4E4BA"  stroke-width="1"/>
<path d="M5401.51 283.08C5316.07 272.684 5189 265.86 5072.86 303.633C4954.38 342.166 4834.99 399.528 4712.73 446.396C4517.32 521.311 4314.82 583.105 4117.36 586.219C3929.58 589.187 3746.75 544.398 3554.1 494.647C3442.23 465.744 3332.98 433.37 3219.15 424.281C2993.04 405.856 2766.86 482.772 2539 510.22C2371.3 530.47 2262.33 485.357 2140.37 397.702C2030.31 318.59 1901.28 242.454 1762.9 264.117C1629.5 285 1502.97 351.261 1385.07 436.13" stroke="#F4E4BA"  stroke-width="1"/>
<path d="M5404.82 270.438C5315.74 265.667 5186.59 262.089 5068.96 302.938C4948.83 344.657 4827.58 403.822 4702.89 451.45C4506.6 526.43 4302.15 586.008 4103.88 584.632C3916.07 583.329 3734.71 532.8 3541.93 483.05C3430.47 454.274 3321.16 423.932 3207.68 416.008C2982.41 399.899 2757.33 475.339 2530.43 502.546C2363.8 522.576 2252.13 480.4 2128.75 395.743C2018.11 319.827 1890.29 244.419 1753.31 269.594C1621.68 293.777 1498.07 362.45 1381.42 447.272" stroke="#F4E4BA"  stroke-width="1"/>
<path d="M5408.12 257.793C5315.39 258.635 5184.18 258.315 5065.06 302.25C4943.27 347.168 4820.16 408.135 4693.05 456.501C4495.87 531.536 4289.48 588.919 4090.38 583.031C3902.52 577.469 3722.65 521.178 3529.75 471.429C3418.68 442.768 3309.31 414.48 3196.17 407.721C2971.77 393.917 2747.77 467.903 2521.85 494.869C2356.28 514.679 2241.94 475.418 2117.11 393.782C2005.89 321.051 1879.28 246.372 1743.68 275.058C1613.85 302.529 1493.12 373.615 1377.73 458.389" stroke="#F4E4BA"  stroke-width="1"/>
<path d="M5411.44 245.161C5315.05 251.627 5181.79 254.564 5061.16 301.576C4937.73 349.691 4812.75 412.46 4683.21 461.576C4485.15 536.676 4276.81 591.876 4076.91 581.454C3889.01 571.654 3710.59 509.59 3517.59 459.831C3406.93 431.286 3297.48 405.041 3184.69 399.446C2961.12 387.959 2738.23 460.468 2513.26 487.193C2348.77 506.783 2231.76 470.416 2105.45 391.812C1993.68 322.244 1868.27 248.293 1734.05 280.524C1606 311.272 1488.17 384.781 1374.04 469.519" stroke="#F4E4BA"  stroke-width="1"/>
<path d="M5414.74 232.519C5314.7 244.599 5179.37 250.793 5057.25 300.891C4932.16 352.205 4805.33 416.776 4673.37 466.641C4474.42 541.817 4264.13 594.844 4063.41 579.866C3875.47 565.841 3698.53 497.981 3505.4 448.224C3395.14 419.805 3285.63 395.603 3173.19 391.162C2950.47 381.992 2728.67 453.035 2504.67 479.519C2341.25 498.889 2221.58 465.403 2093.81 389.853C1981.49 323.437 1857.26 250.216 1724.44 285.99C1598.16 320.006 1483.24 395.96 1370.37 480.638" stroke="#F4E4BA"  stroke-width="1"/>
<path d="M5418.05 219.876C5314.37 237.58 5176.98 247.031 5053.37 300.206C4926.63 354.727 4798.04 421.362 4663.54 471.694C4463.86 547.337 4251.48 597.812 4049.95 578.267C3861.96 560.037 3686.49 486.371 3493.25 436.615C3383.39 408.311 3273.81 386.153 3161.72 382.876C2939.85 376.023 2719.14 445.6 2496.11 471.844C2333.76 490.993 2211.45 460.368 2082.2 387.893C1969.34 324.618 1846.28 252.125 1714.85 291.466C1590.35 328.726 1478.33 407.137 1366.72 491.768" stroke="#F4E4BA"  stroke-width="1"/>
<path d="M5421.37 207.231C5314.04 230.548 5174.69 243.496 5049.47 299.518C4921.19 357.477 4790.64 425.664 4653.7 476.756C4453.14 552.453 4238.8 600.81 4036.46 576.687C3848.42 554.264 3674.43 474.77 3481.08 425.015C3371.61 396.827 3261.97 376.723 3150.22 374.611C2929.21 370.073 2709.59 438.175 2487.53 464.178C2326.24 483.107 2201.3 455.319 2070.55 385.942C1957.17 325.787 1835.26 254.034 1705.22 296.941C1582.5 337.446 1473.39 418.312 1363.04 502.906" stroke="#F4E4BA"  stroke-width="1"/>
<path d="M5424.67 194.599C5313.69 223.541 5172.28 239.734 5045.56 298.844C4915.63 359.989 4783.22 429.99 4643.86 481.821C4442.39 557.572 4226.11 603.822 4022.98 575.099C3834.88 548.504 3662.37 463.171 3468.92 413.407C3359.85 385.334 3250.13 367.273 3138.74 366.326C2918.57 364.105 2700.05 430.74 2478.96 456.502C2318.74 475.212 2191.18 450.229 2058.92 383.983C1945.01 326.914 1824.24 255.923 1695.62 302.417C1574.66 346.145 1468.47 429.489 1359.38 514.036" stroke="#F4E4BA"  stroke-width="1"/>
<path d="M5427.98 181.955C5313.36 216.51 5169.88 235.951 5041.67 298.158C4910.09 362.501 4775.81 434.293 4634.02 486.884C4431.67 562.69 4213.42 606.844 4009.49 573.511C3821.33 542.755 3650.32 451.571 3456.74 401.798C3348.08 373.851 3238.3 357.834 3127.25 358.04C2907.93 358.135 2690.5 423.295 2470.38 448.816C2311.23 467.305 2181.05 445.117 2047.28 382.001C1932.86 328.018 1813.21 257.768 1686.01 307.872C1566.79 354.823 1463.52 440.656 1355.7 525.155" stroke="#F4E4BA"  stroke-width="1"/>
<path d="M5431.28 169.312C5313.01 209.492 5167.48 232.178 5037.77 297.472C4904.54 365.002 4768.4 438.607 4624.19 491.948C4420.94 567.808 4200.72 609.888 3996.02 571.922C3807.78 537.017 3638.27 439.961 3444.58 390.189C3336.32 362.358 3226.47 348.383 3115.77 349.754C2897.3 352.166 2680.97 415.86 2461.82 441.14C2303.73 459.409 2170.94 439.982 2035.66 380.041C1920.73 329.111 1802.19 259.634 1676.41 313.337C1558.95 363.49 1458.61 451.822 1352.05 536.273" stroke="#F4E4BA"  stroke-width="1"/>
<path d="M5434.6 156.669C5312.68 202.462 5165.07 228.395 5033.87 296.786C4899 367.504 4760.99 442.911 4614.35 497.001C4410.22 572.904 4188.02 612.944 3982.53 570.323C3794.22 531.279 3626.21 428.351 3432.41 378.581C3324.54 350.865 3214.63 338.934 3104.27 341.469C2886.65 346.187 2671.41 408.426 2453.23 433.454C2296.21 451.503 2160.81 434.816 2024.01 378.071C1908.56 330.173 1791.12 261.469 1666.77 318.803C1551.05 372.146 1453.66 462.988 1348.35 547.403" stroke="#F4E4BA"  stroke-width="1"/>
<path d="M5437.9 144.037C5312.32 195.454 5162.67 224.634 5029.97 296.112C4893.45 370.016 4753.57 447.237 4604.5 502.076C4399.48 578.033 4175.3 616.021 3969.05 568.756C3780.65 525.585 3614.16 416.763 3420.24 366.994C3312.77 339.404 3202.79 329.517 3092.78 333.216C2876.01 340.25 2661.87 401.013 2444.65 425.812C2288.71 443.641 2150.7 429.671 2012.37 376.144C1896.42 331.266 1780.07 263.347 1657.17 324.301C1543.18 380.835 1448.74 474.198 1344.69 558.554" stroke="#F4E4BA"  stroke-width="1"/>
<path d="M5441.21 131.394C5311.99 188.424 5160.28 220.85 5026.07 295.426C4887.89 372.517 4746.16 451.54 4594.67 507.129C4388.76 583.14 4162.58 619.098 3955.56 567.157C3767.07 519.869 3602.09 405.153 3408.06 355.374C3300.99 327.9 3190.95 320.056 3081.29 324.92C2865.37 334.27 2652.32 393.567 2436.06 418.125C2281.18 435.734 2140.57 424.449 2000.73 374.162C1884.26 332.283 1768.99 265.16 1647.55 329.755C1535.27 389.47 1443.8 485.353 1341.01 569.662" stroke="#F4E4BA"  stroke-width="1"/>
<path d="M5444.52 118.751C5311.64 181.406 5157.86 217.078 5022.17 294.73C4882.35 375.008 4738.75 455.844 4584.82 512.182C4378.02 588.248 4149.84 622.176 3942.06 565.558C3753.47 514.164 3590.03 393.532 3395.88 343.755C3289.22 316.396 3179.09 310.606 3069.79 316.624C2854.73 328.291 2642.76 386.111 2427.48 410.428C2273.67 427.828 2130.45 419.195 1989.08 372.181C1872.1 333.279 1757.91 266.962 1637.92 335.199C1527.36 398.093 1438.85 496.498 1337.33 580.77" stroke="#F4E4BA"  stroke-width="1"/>
<path d="M5447.83 106.107C5311.31 174.376 5155.47 213.294 5018.28 294.044C4876.8 377.509 4731.34 460.158 4574.98 517.246C4367.3 593.366 4137.09 625.286 3928.59 563.969C3739.88 508.481 3577.99 381.933 3383.71 332.157C3277.45 304.924 3167.27 301.166 3058.3 308.349C2844.08 322.332 2633.23 378.687 2418.9 402.764C2266.16 419.943 2120.33 413.952 1977.44 370.232C1859.94 334.285 1746.81 268.786 1628.31 340.686C1519.44 406.75 1433.93 507.697 1333.66 591.91" stroke="#F4E4BA"  stroke-width="1"/>
<path d="M5451.14 93.4751C5310.98 167.368 5153.08 209.533 5014.38 293.369C4871.26 380.032 4723.93 464.472 4565.15 522.31C4356.57 598.484 4124.21 628.813 3915.1 562.392C3726.16 503.182 3565.92 370.345 3371.55 320.559C3265.69 293.442 3155.44 291.738 3046.82 300.085C2833.45 316.385 2623.69 371.274 2410.33 395.099C2258.66 412.059 2110.22 408.664 1965.82 368.283C1847.8 335.27 1735.71 270.61 1618.71 346.173C1511.53 415.395 1429 518.885 1330 603.062" stroke="#F4E4BA"  stroke-width="1"/>
<path d="M5454.45 80.8302C5310.63 160.347 5150.66 205.748 5010.47 292.682C4865.7 382.531 4716.51 468.785 4555.3 527.373C4345.84 603.6 4111.49 631.736 3901.62 560.802C3712.59 497.333 3553.87 358.733 3359.38 308.948C3253.91 281.947 3143.6 282.286 3035.33 291.798C2822.81 310.414 2614.14 363.827 2401.76 387.422C2251.15 404.161 2100.08 403.354 1954.18 366.322C1835.63 336.231 1724.49 272.269 1609.1 351.637C1503.49 423.888 1424.08 530.049 1326.33 614.178" stroke="#F4E4BA"  stroke-width="1"/>
<path d="M5457.76 68.1875C5310.3 153.318 5148.27 201.976 5006.59 291.996C4860.17 385.033 4709.11 473.089 4545.48 532.437C4335.12 608.719 4098.8 634.671 3888.14 559.214C3699.03 491.475 3541.82 347.134 3347.22 297.34C3242.15 270.465 3131.77 272.848 3023.85 283.513C2812.19 304.446 2604.61 356.393 2393.19 379.736C2243.65 396.255 2089.96 398.002 1942.55 364.341C1823.46 337.15 1713.46 274.191 1599.48 357.092C1495.63 432.632 1419.14 541.216 1322.66 625.287" stroke="#F4E4BA"  stroke-width="1"/>
</g>
</svg>
