<svg width="8227" height="4862" viewBox="0 0 8227 4862" fill="none" xmlns="http://www.w3.org/2000/svg">
<g opacity="0.05">
<path d="M7201.95 1880.3C7218.06 1774.23 7167.2 1666.53 7091.91 1590.09C7016.62 1513.66 6919.2 1463.42 6822.22 1417.53C6694.02 1356.85 6559.71 1300.57 6418.01 1294.13C6220.53 1285.17 6032.08 1373.73 5862.31 1475C5560.85 1654.82 5289.03 1880.49 5033.35 2120.99C4759.28 2378.79 4488.76 2663.35 4133.38 2786.93C3814.47 2897.84 3538.99 2833.19 3232.93 2729.66C2947.48 2633.1 2676.35 2468.44 2366.49 2456.09C1959.9 2439.88 1572.73 2694.37 1360.13 3041.32C1147.52 3388.28 1091.2 3813.01 1126.12 4218.43" stroke="#F4E4BA" stroke-width="1"/>
<path d="M7215.98 1830.5C7232.2 1737.95 7178.06 1645.37 7099.05 1577.13C7020.27 1509.09 6921.23 1461.88 6822.88 1421.62C6693.41 1368.62 6557.92 1317.15 6414.56 1315.56C6210.81 1313.27 6012.88 1403.03 5834.83 1503.68C5531.4 1675.18 5259.01 1894.31 5002.89 2126.63C4730.46 2373.75 4464.16 2650.08 4113.86 2769.04C3794.32 2877.57 3516.82 2819.68 3212.72 2727.39C2928.54 2641.84 2660.82 2494.33 2357.51 2491.37C1960.85 2487.49 1584.16 2742.34 1370.96 3084.99C1156.69 3428.62 1089.03 3840.15 1113.34 4239.17" stroke="#F4E4BA" stroke-width="1"/>
<path d="M7229.99 1780.7C7246.32 1701.69 7189.19 1624.39 7106.19 1564.18C7024.16 1504.68 6923.29 1460.33 6823.53 1425.75C6692.85 1380.44 6556.06 1333.89 6411.09 1337C6200.98 1341.53 5993.84 1432.4 5807.35 1532.36C5502.28 1695.88 5229.07 1908.1 4972.43 2132.26C4701.71 2368.75 4439.5 2636.75 4094.33 2751.14C3774.14 2857.24 3494.82 2805.48 3192.5 2725.12C2909.8 2649.96 2645.41 2520.21 2348.52 2526.65C1961.94 2535.04 1595.58 2790.31 1381.79 3128.66C1165.85 3468.99 1086.85 3867.29 1100.55 4259.93" stroke="#F4E4BA" stroke-width="1"/>
<path d="M7244 1730.9C7260.44 1665.42 7200.64 1603.55 7113.3 1551.23C7028.34 1500.31 6925.39 1458.78 6824.17 1429.86C6692.39 1392.2 6554.17 1350.71 6407.64 1358.43C6191.09 1369.85 5974.94 1461.8 5779.87 1561.03C5473.46 1716.89 5199.19 1921.86 4941.98 2137.88C4673.08 2363.73 4414.84 2623.37 4074.81 2733.24C3753.97 2836.9 3472.72 2791.64 3172.3 2722.83C2890.95 2658.38 2630.13 2546 2339.54 2561.91C1963.15 2582.5 1607.02 2838.27 1392.63 3172.31C1175.02 3509.3 1084.68 3894.39 1087.77 4280.63" stroke="#F4E4BA" stroke-width="1"/>
<path d="M7258.01 1681.09C7274.57 1629.15 7212.44 1582.75 7120.43 1538.27C7032.82 1495.92 6927.57 1457.2 6824.81 1433.97C6691.99 1403.94 6552.24 1367.63 6404.17 1379.87C6181.14 1398.32 5956.17 1491.3 5752.4 1589.72C5444.89 1738.23 5169.41 1935.62 4911.52 2143.51C4644.53 2358.72 4390.13 2609.93 4055.28 2715.32C3733.74 2816.53 3450.55 2777.79 3152.09 2720.54C2872.05 2666.82 2614.94 2571.76 2330.55 2597.16C1964.49 2629.85 1618.43 2886.22 1403.44 3215.94C1184.19 3549.65 1082.51 3921.51 1074.98 4301.37" stroke="#F4E4BA" stroke-width="1"/>
<path d="M7272.02 1631.29C7288.7 1592.9 7224.56 1561.91 7127.57 1525.33C7037.66 1491.41 6929.81 1455.59 6825.46 1438.08C6691.67 1415.61 6550.3 1384.64 6400.72 1401.3C6171.16 1426.88 5937.5 1520.87 5724.91 1618.39C5416.54 1759.85 5139.72 1949.36 4881.06 2149.13C4616.09 2353.77 4365.39 2596.43 4035.75 2697.42C3713.5 2796.15 3428.38 2763.98 3131.88 2718.26C2853.13 2675.29 2599.88 2597.46 2321.58 2632.43C1965.96 2677.12 1630.59 2934.66 1414.29 3259.61C1194.07 3590.46 1080.33 3948.63 1062.19 4322.09" stroke="#F4E4BA" stroke-width="1"/>
<path d="M7286.03 1581.49C7302.82 1556.64 7237.01 1540.94 7134.7 1512.37C7042.76 1486.69 6932.09 1453.94 6826.1 1442.19C6691.4 1427.25 6548.34 1401.73 6397.25 1422.75C6161.16 1455.58 5918.94 1550.54 5697.44 1647.08C5388.38 1781.78 5110.14 1963.12 4850.6 2154.78C4587.76 2348.87 4340.65 2582.9 4016.23 2679.55C3693.25 2775.76 3406.18 2750.21 3111.68 2716.01C2834.19 2683.79 2584.95 2623.09 2312.6 2667.73C1967.55 2724.27 1642.13 2982.73 1425.13 3303.29C1203.35 3630.89 1078.16 3975.75 1049.41 4342.83" stroke="#F4E4BA" stroke-width="1"/>
<path d="M7300.04 1531.69C7316.94 1520.37 7249.71 1519.77 7141.83 1499.42C7048.09 1481.74 6934.42 1452.27 6826.75 1446.31C6691.19 1438.82 6546.4 1418.92 6393.79 1444.19C6151.15 1484.37 5900.47 1580.32 5669.95 1675.77C5360.39 1803.95 5080.64 1976.89 4820.13 2160.42C4559.52 2344.02 4315.85 2569.31 3996.69 2661.65C3672.96 2755.31 3383.95 2736.44 3091.46 2713.74C2815.23 2692.3 2570.11 2648.62 2303.6 2703.01C1969.25 2771.25 1653.64 3030.8 1435.95 3346.97C1212.61 3671.34 1075.97 4002.91 1036.61 4363.59" stroke="#F4E4BA" stroke-width="1"/>
<path d="M7314.05 1481.89C7331.06 1484.11 7262.58 1498.33 7148.96 1486.46C7053.56 1476.51 6936.77 1450.5 6827.39 1450.41C6691.01 1450.29 6544.43 1436.15 6390.33 1465.6C6141.13 1513.24 5882.08 1610.18 5642.48 1704.42C5332.57 1826.33 5051.24 1990.65 4789.68 2166.01C4531.42 2339.16 4291.05 2555.61 3977.19 2643.7C3652.69 2734.78 3361.73 2722.65 3071.27 2711.41C2796.26 2700.77 2555.41 2673.95 2294.65 2738.21C1971.08 2817.96 1665.18 3078.77 1446.81 3390.56C1221.88 3711.73 1073.81 4030 1023.84 4384.29" stroke="#F4E4BA" stroke-width="1"/>
<path d="M7328.06 1432.09C7345.2 1447.85 7275.53 1476.6 7156.1 1473.52C7059.13 1471.03 6939.16 1448.71 6828.04 1454.53C6690.85 1461.72 6542.48 1453.49 6386.87 1487.06C6131.13 1542.25 5863.78 1640.2 5615 1733.13C5304.83 1848.98 5021.96 2004.47 4759.21 2171.67C4503.43 2334.43 4266.2 2541.92 3957.66 2625.82C3632.36 2714.28 3339.47 2708.95 3051.06 2709.15C2777.26 2709.33 2540.78 2699.23 2285.66 2773.51C1972.96 2864.56 1676.67 3126.83 1457.62 3434.26C1231.12 3752.14 1071.62 4057.13 1011.06 4405.03" stroke="#F4E4BA" stroke-width="1"/>
<path d="M7342.09 1382.29C7359.33 1411.58 7288.51 1454.56 7163.24 1460.55C7064.71 1465.27 6941.55 1446.84 6828.69 1458.64C6690.73 1473.05 6540.56 1470.85 6383.41 1508.49C6121.13 1571.32 5845.55 1670.32 5587.53 1761.79C5277.22 1871.8 4992.8 2018.29 4728.76 2177.28C4475.57 2329.76 4241.35 2528.14 3938.14 2607.92C3612.03 2693.72 3317.2 2695.26 3030.84 2706.87C2758.24 2717.91 2526.21 2724.32 2276.67 2808.78C1974.9 2910.9 1688.17 3174.85 1468.45 3477.91C1240.34 3792.53 1069.44 4084.23 998.246 4425.75" stroke="#F4E4BA" stroke-width="1"/>
<path d="M7356.1 1332.48C7373.46 1375.32 7301.44 1432.26 7170.38 1447.61C7070.25 1459.33 6943.95 1444.93 6829.34 1462.75C6690.58 1484.32 6538.61 1488.28 6379.97 1529.93C6111.17 1600.49 5827.4 1700.58 5560.06 1790.49C5249.69 1894.85 4963.75 2032.19 4698.31 2182.93C4447.81 2325.19 4216.48 2514.33 3918.63 2590.04C3591.67 2673.15 3294.92 2681.64 3010.65 2704.62C2739.23 2726.55 2511.73 2749.27 2267.71 2844.08C1976.94 2957.04 1699.67 3222.9 1479.3 3521.59C1249.59 3832.96 1067.29 4111.38 985.49 4446.51" stroke="#F4E4BA" stroke-width="1"/>
<path d="M7370.11 1282.68C7387.57 1339.05 7314.28 1409.71 7177.51 1434.65C7075.71 1453.22 6946.33 1442.96 6829.98 1466.85C6690.44 1495.51 6536.7 1505.75 6376.49 1551.36C6101.2 1629.73 5809.28 1730.97 5532.57 1819.16C5222.23 1918.05 4934.8 2046.13 4667.86 2188.55C4420.17 2320.68 4191.58 2500.42 3899.1 2572.12C3571.29 2652.47 3272.63 2668 2990.44 2702.31C2720.19 2735.17 2497.26 2773.98 2258.72 2879.31C1978.94 3002.86 1711.14 3270.89 1490.13 3565.22C1258.8 3873.33 1065.11 4138.48 972.699 4467.23" stroke="#F4E4BA" stroke-width="1"/>
<path d="M7384.12 1232.88C7401.7 1302.79 7327.01 1386.95 7184.64 1421.7C7081.1 1446.98 6948.69 1440.94 6830.64 1470.97C6690.29 1506.66 6534.81 1523.28 6373.05 1572.81C6091.29 1659.08 5791.24 1761.53 5505.11 1847.85C5194.85 1941.46 4905.98 2060.17 4637.4 2194.19C4392.66 2316.32 4166.67 2486.48 3879.58 2554.23C3550.89 2631.79 3250.32 2654.44 2970.24 2700.05C2701.16 2743.87 2482.8 2798.54 2249.74 2914.6C1980.95 3048.46 1722.6 3318.91 1500.97 3608.9C1267.99 3913.73 1062.94 4165.6 959.912 4487.95" stroke="#F4E4BA" stroke-width="1"/>
<path d="M7398.13 1183.08C7415.83 1266.53 7339.59 1364.03 7191.77 1408.75C7086.37 1440.64 6951.04 1438.87 6831.28 1475.07C6690.1 1517.74 6532.91 1540.82 6369.59 1594.22C6081.39 1688.45 5773.21 1792.2 5477.63 1876.5C5167.49 1964.97 4877.26 2074.26 4606.94 2199.79C4365.25 2312.03 4141.73 2472.45 3860.06 2536.3C3530.48 2611.01 3228.03 2640.88 2950.03 2697.73C2682.12 2752.54 2468.29 2822.83 2240.77 2949.83C1982.91 3093.76 1734.05 3366.87 1511.81 3652.52C1277.2 3954.06 1060.77 4192.7 947.144 4508.65" stroke="#F4E4BA" stroke-width="1"/>
<path d="M7412.14 1133.28C7429.95 1230.26 7352.03 1340.97 7198.91 1395.8C7091.55 1434.23 6953.37 1436.78 6831.93 1479.19C6689.89 1528.8 6531.05 1558.42 6366.12 1615.67C6071.52 1717.93 5755.22 1823.04 5450.14 1905.19C5140.16 1988.67 4848.64 2088.51 4576.47 2205.43C4337.93 2307.91 4116.76 2458.4 3840.52 2518.42C3510.02 2590.22 3205.72 2627.38 2929.81 2695.48C2663.08 2761.31 2453.72 2846.98 2231.77 2985.13C1984.75 3138.86 1745.48 3414.89 1522.63 3696.21C1286.36 3994.46 1058.59 4219.84 934.338 4529.42" stroke="#F4E4BA" stroke-width="1"/>
<path d="M7426.15 1083.48C7444.08 1194 7364.35 1317.81 7206.04 1382.84C7096.62 1427.79 6955.68 1434.64 6832.57 1483.31C6689.65 1539.81 6529.21 1576.05 6362.67 1637.11C6061.7 1747.46 5737.29 1854.04 5422.67 1933.89C5112.88 2012.51 4820.14 2102.9 4546.02 2211.09C4310.73 2303.94 4091.79 2444.3 3821 2500.54C3489.58 2569.37 3183.44 2613.94 2909.61 2693.24C2644.07 2770.12 2439.08 2870.95 2222.8 3020.42C1986.51 3183.75 1756.92 3462.9 1533.47 3739.9C1295.54 4034.84 1056.42 4246.98 921.571 4550.15" stroke="#F4E4BA" stroke-width="1"/>
<path d="M7440.16 1033.68C7458.2 1157.74 7376.53 1294.59 7213.17 1369.9C7101.62 1421.33 6957.95 1432.47 6833.21 1487.42C6689.37 1550.78 6527.36 1593.69 6359.2 1658.54C6051.88 1777.04 5719.35 1885.19 5395.19 1962.56C5085.59 2036.45 4791.73 2117.42 4515.56 2216.69C4283.61 2300.08 4066.81 2430.09 3801.48 2482.61C3469.11 2548.41 3161.17 2600.47 2889.4 2690.91C2625.05 2778.89 2424.29 2894.62 2213.82 3055.65C1988.12 3228.33 1768.34 3510.83 1544.31 3783.51C1304.7 4075.17 1054.25 4274.06 908.789 4570.86" stroke="#F4E4BA" stroke-width="1"/>
<path d="M7454.17 983.879C7472.32 1121.48 7388.59 1271.31 7220.3 1356.94C7106.53 1414.83 6960.18 1430.27 6833.86 1491.52C6689.06 1561.74 6525.54 1611.38 6355.74 1679.98C6042.12 1806.69 5701.45 1916.52 5367.7 1991.25C5058.32 2060.52 4763.38 2132.13 4485.09 2222.33C4256.56 2296.4 4041.79 2415.85 3781.95 2464.72C3448.61 2527.4 3138.92 2587.07 2869.19 2688.66C2606.06 2787.75 2409.32 2918.2 2204.83 3090.94C1989.53 3272.81 1779.73 3558.83 1555.13 3827.19C1313.83 4115.53 1052.07 4301.22 895.984 4591.62" stroke="#F4E4BA" stroke-width="1"/>
<path d="M7468.2 934.074C7486.47 1085.21 7400.56 1248.01 7227.45 1343.99C7111.37 1408.36 6962.42 1428.07 6834.52 1495.64C6688.73 1572.68 6523.77 1629.08 6352.3 1701.42C6032.42 1836.39 5683.58 1947.99 5340.25 2019.92C5031.09 2084.7 4735.17 2147.04 4454.66 2227.96C4229.6 2292.89 4016.81 2401.54 3762.45 2446.81C3428.14 2506.31 3116.71 2573.68 2849 2686.36C2587.1 2796.6 2394.19 2941.58 2195.87 3126.2C1990.8 3317.1 1791.14 3606.77 1565.99 3870.84C1322.98 4155.85 1049.91 4328.33 883.229 4612.35" stroke="#F4E4BA" stroke-width="1"/>
<path d="M7482.2 884.271C7500.59 1048.94 7412.4 1224.69 7234.58 1331.03C7116.13 1401.87 6964.6 1425.82 6835.16 1499.75C6688.36 1583.59 6521.98 1646.79 6348.84 1722.86C6022.72 1866.13 5665.71 1979.63 5312.76 2048.61C5003.81 2108.99 4706.96 2162.16 4424.19 2233.6C4202.65 2289.56 3991.76 2387.18 3742.92 2428.92C3407.61 2485.16 3094.48 2560.34 2828.78 2684.11C2568.14 2805.51 2378.83 2964.86 2186.88 3161.48C1991.83 3361.29 1802.53 3654.73 1576.8 3914.51C1332.08 4196.19 1047.72 4355.46 870.411 4633.08" stroke="#F4E4BA" stroke-width="1"/>
<path d="M7496.21 834.472C7514.71 1012.68 7424.17 1201.37 7241.71 1318.08C7120.84 1395.41 6966.76 1423.6 6835.81 1503.86C6687.95 1594.51 6520.22 1664.51 6345.37 1744.29C6013.05 1895.9 5647.83 2011.44 5285.28 2077.29C4976.54 2133.37 4678.8 2177.53 4393.74 2239.23C4175.75 2286.4 3966.75 2372.76 3723.41 2411.03C3387.1 2463.92 3072.31 2547 2808.59 2681.83C2549.23 2814.44 2363.25 2988.01 2177.91 3196.75C1992.66 3405.4 1813.9 3702.67 1587.65 3958.18C1341.2 4236.51 1045.56 4382.58 857.647 4653.83" stroke="#F4E4BA" stroke-width="1"/>
<path d="M7510.23 784.671C7528.83 976.412 7435.87 1178.05 7248.85 1305.13C7125.48 1388.95 6968.88 1421.35 6836.45 1507.97C6687.52 1605.4 6518.47 1682.27 6341.91 1765.72C6003.45 1925.72 5629.96 2043.41 5257.8 2105.96C4949.25 2157.83 4650.67 2193.15 4363.27 2244.84C4148.85 2283.41 3941.7 2358.26 3703.87 2393.1C3366.55 2442.54 3050.13 2533.66 2788.37 2679.53C2530.31 2823.33 2347.4 3011.07 2168.93 3232C1993.27 3449.43 1825.27 3750.57 1598.48 4001.81C1350.29 4276.77 1043.38 4409.69 844.868 4674.53" stroke="#F4E4BA" stroke-width="1"/>
<path d="M7524.24 734.872C7542.96 940.163 7447.51 1154.74 7255.97 1292.19C7130.07 1382.52 6970.99 1419.1 6837.09 1512.11C6687.04 1616.33 6516.74 1700.05 6338.44 1787.19C5993.84 1955.6 5612.09 2075.57 5230.32 2134.67C4921.92 2182.4 4622.52 2209.1 4332.8 2250.5C4121.92 2280.64 3916.67 2343.73 3684.34 2375.24C3346 2421.1 3027.98 2520.37 2768.15 2677.28C2511.43 2832.31 2331.32 3034.13 2159.94 3267.3C1993.66 3493.52 1836.61 3798.51 1609.31 4045.51C1359.37 4317.11 1041.21 4436.85 832.068 4695.31" stroke="#F4E4BA" stroke-width="1"/>
<path d="M7538.25 685.07C7557.09 903.891 7459.1 1131.45 7263.1 1279.23C7134.65 1376.09 6973.06 1416.83 6837.74 1516.19C6686.57 1627.2 6515.02 1717.81 6334.99 1808.59C5984.3 1985.45 5594.22 2107.86 5202.84 2163.32C4894.59 2207.01 4594.34 2225.27 4302.35 2256.1C4094.97 2278 3891.63 2329.09 3664.81 2357.3C3325.44 2399.49 3005.87 2507.04 2747.95 2674.97C2492.57 2841.23 2315.03 3057.12 2150.95 3302.53C1993.83 3537.54 1847.95 3846.37 1620.14 4089.13C1368.44 4357.33 1039.01 4463.92 819.276 4715.99" stroke="#F4E4BA" stroke-width="1"/>
<path d="M7552.26 635.271C7571.21 867.627 7470.62 1108.17 7270.23 1266.28C7139.17 1369.69 6975.12 1414.59 6838.39 1520.32C6686.05 1638.11 6513.32 1735.59 6331.53 1830.05C5974.78 2015.39 5576.34 2140.36 5175.37 2192.02C4867.24 2231.72 4566.09 2241.81 4271.91 2261.75C4067.98 2275.57 3866.61 2314.45 3645.31 2339.42C3304.91 2377.83 2983.8 2493.79 2727.77 2672.72C2473.77 2850.23 2298.5 3080.19 2142 3337.83C1993.86 3581.7 1859.31 3894.29 1631.01 4132.82C1377.54 4397.63 1036.88 4491.07 806.525 4736.76" stroke="#F4E4BA" stroke-width="1"/>
<path d="M7566.27 585.469C7585.33 831.361 7482.11 1084.9 7277.36 1253.32C7143.67 1363.29 6977.16 1412.32 6839.03 1524.43C6685.53 1649.01 6511.64 1753.38 6328.06 1851.48C5965.28 2045.34 5558.44 2173 5147.88 2220.7C4839.84 2256.5 4537.74 2258.67 4241.44 2267.39C4040.85 2273.29 3841.57 2299.73 3625.77 2321.54C3284.34 2356.03 2961.73 2480.52 2707.53 2670.45C2454.94 2859.21 2281.73 3103.28 2132.99 3373.12C1993.64 3625.92 1870.62 3942.2 1641.81 4176.49C1386.56 4437.89 1034.69 4518.22 793.714 4757.51" stroke="#F4E4BA" stroke-width="1"/>
<path d="M7580.28 535.67C7599.45 795.098 7493.57 1061.66 7284.5 1240.38C7148.15 1356.94 6979.18 1410.06 6839.67 1528.54C6684.97 1659.92 6509.98 1771.18 6324.61 1872.91C5955.83 2075.3 5540.52 2205.79 5120.41 2249.37C4812.43 2281.31 4509.27 2275.8 4210.98 2273C4013.65 2271.14 3816.54 2284.93 3606.24 2303.61C3263.8 2334.02 2939.68 2467.19 2687.32 2668.15C2436.16 2868.15 2264.79 3126.39 2124.01 3408.36C1993.28 3670.2 1881.92 3990.04 1652.64 4220.13C1395.6 4478.08 1032.5 4545.31 780.927 4778.2" stroke="#F4E4BA" stroke-width="1"/>
<path d="M7594.3 485.862C7613.59 758.84 7505.01 1038.41 7291.64 1227.42C7152.61 1350.56 6981.21 1407.8 6840.33 1532.64C6684.42 1670.83 6508.33 1788.98 6321.16 1894.35C5946.42 2105.3 5522.59 2238.78 5092.94 2278.05C4784.97 2306.21 4480.64 2293.28 4180.52 2278.63C3986.31 2269.15 3791.52 2270.09 3586.74 2285.71C3243.26 2311.92 2917.69 2453.92 2667.13 2665.87C2417.42 2877.12 2247.7 3149.6 2115.05 3443.62C1992.8 3714.59 1892.82 4037.45 1663.5 4263.78C1404.17 4517.81 1030.35 4572.42 768.158 4798.93" stroke="#F4E4BA" stroke-width="1"/>
<path d="M7608.31 436.062C7627.73 722.57 7516.42 1015.2 7298.77 1214.47C7157.05 1344.24 6983.2 1405.55 6840.98 1536.77C6683.82 1681.75 6506.69 1806.8 6317.69 1915.79C5937.01 2135.32 5504.62 2271.94 5065.46 2306.74C4757.47 2331.15 4451.78 2311.05 4150.06 2284.27C3958.8 2267.3 3766.52 2255.19 3567.21 2267.81C3222.73 2289.63 2896.09 2441.09 2646.92 2663.6C2399.08 2886.55 2230.42 3172.92 2106.06 3478.9C1992.17 3759.11 1904.25 4085.42 1674.33 4307.44C1413.34 4558.15 1028.16 4599.55 755.375 4819.67" stroke="#F4E4BA" stroke-width="1"/>
<path d="M7622.32 386.26C7641.85 686.303 7527.8 992.008 7305.9 1201.51C7161.46 1337.9 6984.95 1403.06 6841.62 1540.86C6682.97 1692.4 6505.27 1824.94 6314.24 1937.22C5928.06 2166.03 5486.63 2305.23 5037.98 2335.4C4729.94 2356.12 4422.71 2329.08 4119.61 2289.89C3931.15 2265.51 3741.56 2240.21 3547.69 2249.9C3202.23 2267.17 2873.92 2427.56 2626.72 2661.3C2380.18 2895.27 2213.03 3196.32 2097.09 3514.15C1991.44 3803.75 1915.69 4133.38 1685.16 4351.1C1422.5 4598.48 1026 4626.68 742.592 4840.41" stroke="#F4E4BA" stroke-width="1"/>
<path d="M7636.33 336.46C7655.97 650.039 7539.15 968.83 7313.04 1188.57C7165.87 1331.58 6987.15 1401.06 6842.27 1544.99C6682.6 1703.6 6503.45 1842.45 6310.77 1958.66C5918.3 2195.41 5468.6 2338.7 5010.51 2364.1C4702.36 2381.19 4393.39 2347.41 4089.15 2295.53C3903.28 2263.84 3716.61 2225.2 3528.17 2232.02C3181.75 2244.53 2851.77 2414.05 2606.52 2659.04C2361.27 2904.04 2195.53 3219.85 2088.12 3549.44C1990.63 3848.54 1927.13 4181.36 1696 4394.77C1431.67 4638.84 1023.84 4653.81 729.807 4861.15" stroke="#F4E4BA" stroke-width="1"/>
<path d="M6747.53 1729.05C6570.67 1392.89 6272.41 1122.28 5920.67 978.855C5820.61 938.046 5712.24 906.886 5605.37 922.899C5296.57 969.195 5129.84 1321.3 4974.51 1553.86C4787.04 1834.54 4606.13 2120.28 4396.14 2385.01C4278.25 2533.64 4128.21 2686.69 3938.54 2690.02C3746.47 2693.38 3591.99 2543.53 3445.15 2419.69C3274.04 2275.37 3079.25 2152.47 2861.8 2099.28C2644.38 2046.09 2401.65 2069.29 2217.32 2196.29C2072.97 2295.74 1975.09 2448.87 1894.15 2604.37C1681.47 3012.94 1559.02 3468.17 1538.01 3928.29" stroke="#F4E4BA" stroke-width="1"/>
<path d="M6748.13 1710.08C6576.98 1384.76 6283.1 1133.49 5926.76 992.029C5827.27 952.537 5720.13 921.714 5614.46 936.814C5308.45 980.336 5140.35 1319.15 4983.51 1546.49C4816.29 1788.88 4655.07 2037.78 4472.45 2274.97C4450.02 2304.2 4427.32 2333.21 4404.27 2361.98C4286.89 2508.53 4138.55 2659.52 3951.96 2665.64C3762.94 2671.91 3610.41 2529.96 3465.33 2413.09C3296.07 2277.1 3103.98 2161.74 2890 2113.47C2675.65 2065.55 2436.81 2091.13 2254.35 2216.43C2130.35 2301.56 2040.02 2425.28 1964.71 2555.18C1953.05 2575.28 1941.89 2595.59 1930.76 2615.79C1710.01 3016.57 1577.5 3444.58 1557.17 3889.87" stroke="#F4E4BA" stroke-width="1"/>
<path d="M6748.73 1691.12C6583.29 1376.65 6293.82 1144.67 5932.87 1005.21C5833.96 967.005 5728.04 936.566 5623.54 950.743C5320.33 991.491 5150.88 1317.02 4992.52 1539.16C4824.94 1774.23 4664.05 2018.27 4480.32 2253.25C4457.97 2282.03 4435.35 2310.62 4412.41 2338.99C4295.54 2483.47 4148.89 2632.4 3965.39 2641.32C3779.4 2650.51 3628.81 2516.45 3485.5 2406.56C3318.1 2278.92 3128.72 2171.06 2918.17 2127.74C2706.9 2085.06 2471.96 2113.04 2291.37 2236.66C2168.38 2320.8 2077.86 2441.82 2001.77 2568.31C1989.96 2587.88 1978.76 2607.72 1967.35 2627.29C1738.36 3020.4 1595.98 3421.08 1576.31 3851.53" stroke="#F4E4BA" stroke-width="1"/>
<path d="M6749.33 1672.17C6589.59 1368.53 6304.6 1155.81 5938.97 1018.4C5840.66 981.448 5735.95 951.405 5632.64 964.668C5332.23 1002.64 5161.47 1314.89 5001.54 1531.8C4833.65 1759.55 4672.44 1998.28 4488.2 2231.52C4465.86 2259.81 4443.4 2288.03 4420.56 2315.98C4304.19 2458.4 4159.25 2605.26 3978.84 2616.98C3795.9 2629.08 3647.47 2502.64 3505.7 2400.02C3340.39 2280.36 3153.59 2179.82 2946.38 2141.99C2738.28 2104.01 2507.14 2134.93 2328.44 2256.86C2206.47 2340.02 2115.79 2458.36 2038.86 2581.42C2026.91 2600.47 2015.67 2619.84 2004 2638.77C1766.6 3024.27 1614.5 3397.55 1595.53 3813.16" stroke="#F4E4BA" stroke-width="1"/>
<path d="M6749.93 1653.2C6595.89 1360.42 6315.4 1166.91 5945.06 1031.57C5847.36 995.862 5743.84 966.234 5641.73 978.582C5344.1 1013.77 5172.08 1312.71 5010.55 1524.44C4842.38 1744.86 4681.21 1978.59 4496.07 2209.78C4473.77 2237.62 4451.41 2265.44 4428.68 2292.97C4312.82 2433.33 4169.57 2578.11 3992.24 2592.63C3812.34 2607.65 3665.91 2489 3525.84 2393.46C3362.45 2282.02 3178.32 2188.93 2974.54 2156.2C2769.54 2123.3 2542.27 2156.78 2365.44 2277.02C2244.48 2359.19 2153.61 2474.84 2075.89 2594.48C2063.8 2613 2052.49 2631.9 2040.58 2650.22C1794.58 3028.17 1632.95 3374.01 1614.65 3774.76" stroke="#F4E4BA" stroke-width="1"/>
<path d="M6750.53 1634.24C6602.2 1352.29 6326.22 1177.97 5951.16 1044.74C5854.08 1010.27 5751.75 981.074 5650.83 992.494C5355.99 1024.91 5182.75 1310.54 5019.57 1517.09C4851.19 1730.2 4690.05 1958.92 4503.95 2188.04C4481.7 2215.42 4459.46 2242.84 4436.83 2269.95C4321.47 2408.23 4179.93 2550.95 4005.68 2568.28C3828.82 2586.21 3684.39 2475.36 3546.03 2386.9C3384.56 2283.67 3203.08 2198.06 3002.73 2170.45C2800.82 2142.62 2577.43 2178.67 2402.48 2297.22C2282.54 2378.39 2191.49 2491.37 2112.96 2607.59C2100.71 2625.59 2089.35 2644.03 2077.18 2661.71C1822.4 3032.17 1651.42 3350.48 1633.8 3736.39" stroke="#F4E4BA" stroke-width="1"/>
<path d="M6751.13 1615.27C6608.5 1344.17 6337.09 1188.98 5957.26 1057.93C5860.8 1024.66 5759.64 995.918 5659.91 1006.42C5367.87 1036.06 5193.45 1308.39 5028.58 1509.74C4860.03 1715.55 4698.85 1939.26 4511.82 2166.31C4489.63 2193.25 4467.48 2220.24 4444.97 2246.97C4330.12 2383.17 4190.29 2523.83 4019.11 2543.96C3845.3 2564.81 3702.85 2461.74 3566.21 2380.38C3406.63 2285.35 3227.82 2207.23 3030.92 2184.71C2832.08 2161.97 2612.59 2200.55 2439.51 2317.44C2320.6 2397.61 2229.37 2507.91 2150.03 2620.71C2137.65 2638.19 2126.19 2656.14 2113.8 2673.2C1850.06 3036.21 1669.93 3326.98 1652.98 3698.04" stroke="#F4E4BA" stroke-width="1"/>
<path d="M6751.72 1596.3C6614.81 1336.05 6347.99 1199.92 5963.36 1071.1C5867.55 1039.01 5767.57 1010.96 5669.01 1020.33C5379.82 1047.81 5204.22 1306.22 5037.61 1502.36C4868.97 1700.88 4707.71 1919.57 4519.71 2144.56C4497.58 2171.04 4475.54 2197.62 4453.13 2223.94C4338.79 2358.09 4200.65 2496.67 4032.56 2519.59C3861.78 2543.35 3721.32 2448.07 3586.41 2373.78C3428.74 2286.97 3252.58 2216.32 3059.13 2198.91C2863.35 2181.28 2647.78 2222.39 2476.57 2337.59C2358.69 2416.77 2267.5 2524.55 2187.11 2633.75C2174.6 2650.73 2163.04 2668.19 2150.43 2684.63C1877.53 3040.2 1688.43 3303.39 1672.15 3659.62" stroke="#F4E4BA" stroke-width="1"/>
<path d="M6752.32 1577.34C6621.11 1327.92 6358.91 1210.82 5969.44 1084.27C5874.28 1053.35 5775.47 1025.82 5678.09 1034.23C5391.68 1059 5215.01 1304.05 5046.61 1495C4877.93 1686.26 4716.55 1899.92 4527.57 2122.81C4505.5 2148.84 4483.56 2175.01 4461.24 2200.91C4347.41 2332.99 4210.97 2469.5 4045.97 2495.24C3878.23 2521.91 3739.72 2434.42 3606.56 2367.23C3450.76 2288.62 3277.29 2225.49 3087.29 2213.14C2894.57 2200.61 2682.9 2244.26 2513.58 2357.77C2396.71 2435.97 2305.36 2541.08 2224.14 2646.84C2211.51 2663.3 2199.83 2680.28 2187.02 2696.08C1904.73 3044.22 1706.9 3279.85 1691.3 3621.23" stroke="#F4E4BA" stroke-width="1"/>
<path d="M6752.92 1558.37C6627.41 1319.81 6369.87 1221.66 5975.54 1097.44C5881.04 1067.67 5783.37 1040.67 5687.18 1048.14C5403.58 1070.2 5225.87 1301.88 5055.62 1487.63C4886.96 1671.64 4725.41 1880.25 4535.45 2101.06C4513.43 2126.65 4491.6 2152.4 4469.39 2177.89C4356.07 2307.89 4221.32 2442.35 4059.41 2470.88C3894.71 2500.47 3758.17 2420.77 3626.75 2360.66C3472.82 2290.26 3302 2234.64 3115.49 2227.36C2925.82 2219.96 2718.08 2266.12 2550.62 2377.94C2434.76 2455.13 2343.26 2557.6 2261.22 2659.91C2248.44 2675.85 2236.65 2692.33 2223.64 2707.53C1931.77 3048.2 1725.38 3256.29 1710.48 3582.83" stroke="#F4E4BA" stroke-width="1"/>
<path d="M6753.52 1539.42C6633.72 1311.7 6380.85 1232.48 5981.64 1110.65C5887.8 1082.01 5791.27 1055.55 5696.28 1062.09C5415.46 1081.42 5236.79 1299.77 5064.64 1480.3C4896.06 1657.09 4734.29 1860.65 4543.32 2079.34C4521.38 2104.48 4499.62 2129.82 4477.53 2154.91C4364.73 2282.85 4231.68 2415.24 4072.84 2446.57C3911.19 2479.07 3776.58 2407.15 3646.92 2354.14C3494.84 2291.95 3326.71 2243.86 3143.67 2241.63C2957.03 2239.36 2753.22 2288.03 2587.64 2398.17C2472.8 2474.37 2381.14 2574.17 2298.27 2673.04C2285.34 2688.46 2273.43 2704.46 2260.23 2719.05C1958.55 3052.23 1743.86 3232.81 1729.62 3544.51" stroke="#F4E4BA" stroke-width="1"/>
<path d="M6754.12 1520.45C6640.02 1303.57 6391.86 1243.22 5987.74 1123.82C5894.57 1096.29 5799.17 1070.4 5705.38 1076C5427.35 1092.6 5247.76 1297.64 5073.65 1472.93C4905.22 1642.52 4743.18 1841.01 4551.19 2057.6C4529.31 2082.28 4507.66 2107.22 4485.68 2131.89C4373.38 2257.75 4242.02 2388.08 4086.28 2422.2C3927.67 2457.61 3795 2393.5 3667.11 2347.57C3516.86 2293.59 3351.41 2253.04 3171.87 2255.85C2988.26 2258.71 2788.39 2309.88 2624.7 2418.34C2510.88 2493.56 2419.06 2590.69 2335.36 2686.12C2322.29 2701.02 2310.25 2716.53 2296.88 2730.5C1985.17 3056.1 1762.39 3209.27 1748.83 3506.11" stroke="#F4E4BA" stroke-width="1"/>
<path d="M6754.72 1501.49C6646.33 1295.46 6402.89 1253.88 5993.83 1136.99C5901.34 1110.56 5807.07 1085.25 5714.46 1089.91C5439.21 1103.79 5258.78 1295.54 5082.66 1465.58C4914.43 1628.02 4752.07 1821.41 4559.07 2035.87C4537.24 2060.12 4515.7 2084.63 4493.8 2108.89C4382.01 2232.68 4252.28 2360.63 4099.69 2397.88C3944.04 2435.88 3813.37 2379.91 3687.28 2341.04C3538.84 2295.29 3376.1 2262.28 3200.04 2270.11C3019.46 2278.14 2823.52 2331.78 2661.71 2438.54C2548.91 2512.77 2456.91 2607.23 2372.39 2699.23C2359.19 2713.61 2346.99 2728.62 2333.45 2741.98C2011.51 3059.91 1780.83 3185.74 1767.95 3467.75" stroke="#F4E4BA" stroke-width="1"/>
<path d="M6755.32 1482.52C6652.63 1287.32 6413.95 1264.49 5999.93 1150.16C5908.12 1124.8 5814.96 1100.09 5723.56 1103.82C5451.1 1114.95 5269.86 1293.46 5091.69 1458.21C4923.73 1613.52 4761 1801.77 4566.95 2014.11C4545.2 2037.9 4523.75 2062.01 4501.95 2085.85C4390.68 2207.58 4262.63 2333.44 4113.14 2373.5C3960.52 2414.39 3831.76 2366.26 3707.48 2334.44C3560.85 2296.92 3400.8 2271.45 3228.24 2284.29C3050.68 2297.5 2858.71 2353.6 2698.76 2458.69C2586.97 2531.92 2494.8 2623.73 2409.48 2712.28C2396.13 2726.14 2383.77 2740.64 2370.08 2753.42C2037.68 3063.56 1799.34 3162.18 1787.13 3429.35" stroke="#F4E4BA" stroke-width="1"/>
<path d="M6755.91 1463.56C6658.93 1279.22 6425.03 1275.01 6006.02 1163.35C5914.9 1139.07 5822.86 1114.95 5732.64 1117.75C5462.97 1126.13 5281 1291.42 5100.7 1450.86C4933.05 1599.09 4769.93 1782.19 4574.82 1992.38C4553.14 2015.74 4531.78 2039.42 4510.1 2062.86C4399.32 2182.52 4272.97 2306.3 4126.56 2349.17C3976.98 2392.98 3850.11 2352.66 3727.65 2327.91C3582.8 2298.63 3425.47 2280.73 3256.42 2298.56C3081.85 2316.96 2893.86 2375.51 2735.78 2478.92C2625.01 2551.16 2532.66 2640.3 2446.52 2725.42C2433.03 2738.75 2420.51 2752.75 2406.68 2764.93C2063.61 3067.12 1817.81 3138.67 1806.28 3391.01" stroke="#F4E4BA" stroke-width="1"/>
<path d="M6756.51 1444.59C6665.23 1271.09 6436.13 1285.49 6012.13 1176.52C5921.71 1153.28 5830.76 1129.77 5741.74 1131.66C5474.84 1137.29 5292.21 1289.42 5109.72 1443.5C4942.48 1584.69 4778.88 1762.61 4582.71 1970.65C4561.1 1993.56 4539.81 2016.83 4518.25 2039.85C4407.98 2157.44 4283.32 2279.14 4140.02 2324.83C3993.46 2371.54 3868.49 2339.08 3747.85 2321.37C3604.77 2300.35 3450.17 2290.01 3284.63 2312.81C3113.08 2336.43 2929.04 2397.4 2772.85 2499.1C2663.1 2570.36 2570.57 2656.83 2483.62 2738.49C2469.98 2751.3 2457.28 2764.78 2443.32 2776.38C2089.38 3070.47 1836.33 3115.13 1825.48 3352.61" stroke="#F4E4BA" stroke-width="1"/>
<path d="M6757.11 1425.63C6671.54 1262.97 6447.24 1295.88 6018.21 1189.69C5928.48 1167.48 5838.64 1144.62 5750.82 1145.58C5486.71 1148.45 5303.47 1287.48 5118.72 1436.14C4951.94 1570.35 4787.84 1743.03 4590.57 1948.9C4569.03 1971.37 4547.83 1994.21 4526.36 2016.83C4416.61 2132.36 4293.63 2251.99 4153.41 2300.47C4009.89 2350.09 3886.79 2325.5 3767.98 2314.79C3626.67 2302.06 3474.81 2299.28 3312.78 2327.01C3144.23 2355.86 2964.16 2419.22 2809.84 2519.26C2701.12 2589.51 2608.4 2673.33 2520.64 2751.56C2506.84 2763.85 2493.97 2776.8 2479.88 2787.84C2114.87 3073.6 1854.75 3091.58 1844.59 3314.22" stroke="#F4E4BA" stroke-width="1"/>
<path d="M6757.71 1406.66C6677.84 1254.84 6458.39 1306.2 6024.31 1202.86C5935.29 1181.67 5846.55 1159.45 5759.92 1159.47C5498.59 1159.56 5314.8 1285.56 5127.73 1428.76C4961.46 1556.05 4796.81 1723.44 4598.44 1927.14C4576.99 1949.18 4555.87 1971.59 4534.5 1993.8C4425.25 2107.25 4303.96 2224.83 4166.85 2276.11C4026.37 2328.66 3905.14 2311.93 3788.19 2308.22C3648.62 2303.79 3499.5 2308.57 3340.98 2341.23C3175.43 2375.35 2999.32 2441.09 2846.89 2539.45C2739.18 2608.7 2646.28 2689.84 2557.72 2764.65C2543.78 2776.41 2530.72 2788.82 2516.51 2799.29C2140.25 3076.51 1873.28 3068.03 1863.78 3275.83" stroke="#F4E4BA" stroke-width="1"/>
<path d="M6758.32 1387.71C6684.16 1246.73 6469.54 1316.44 6030.41 1216.07C5942.1 1195.88 5854.45 1174.31 5769.01 1173.42C5510.47 1170.74 5326.18 1283.76 5136.75 1421.44C4971.05 1541.87 4805.82 1703.94 4606.32 1905.43C4584.93 1927.03 4563.91 1949.02 4542.65 1970.82C4433.91 2082.21 4314.31 2197.72 4180.29 2251.8C4042.83 2307.26 3923.46 2298.44 3808.37 2301.7C3670.54 2305.62 3524.19 2317.93 3369.18 2355.51C3206.64 2394.91 3034.5 2463.01 2883.94 2559.66C2777.25 2627.93 2684.15 2706.39 2594.81 2777.77C2580.73 2789.01 2567.46 2800.87 2553.14 2810.78C2165.45 3079.2 1891.77 3044.52 1882.96 3237.48" stroke="#F4E4BA" stroke-width="1"/>
<path d="M6758.91 1368.75C6690.45 1238.62 6480.71 1326.62 6036.51 1229.24C5948.9 1210.03 5862.35 1189.13 5778.11 1187.33C5522.34 1181.85 5337.64 1282 5145.77 1414.07C4980.68 1527.7 4814.82 1684.41 4614.19 1883.69C4592.88 1904.85 4571.95 1926.41 4550.79 1947.8C4442.56 2057.13 4324.65 2170.57 4193.73 2227.43C4059.3 2285.83 3941.79 2284.9 3828.55 2295.12C3692.48 2307.41 3548.86 2327.26 3397.36 2369.72C3237.83 2414.43 3069.64 2484.86 2920.97 2579.84C2815.3 2647.12 2722.01 2722.89 2631.86 2790.85C2617.63 2801.57 2604.17 2812.87 2589.73 2822.26C2190.47 3081.59 1910.25 3020.99 1902.11 3199.11" stroke="#F4E4BA" stroke-width="1"/>
<path d="M6759.51 1349.78C6696.75 1230.49 6491.9 1336.68 6042.6 1242.41C5955.69 1224.17 5870.24 1203.96 5787.18 1201.25C5534.2 1192.98 5349.11 1280.34 5154.77 1406.71C4990.35 1513.6 4823.84 1664.88 4622.06 1861.95C4600.83 1882.68 4579.96 1903.82 4558.93 1924.78C4451.2 2032.04 4334.99 2143.43 4207.15 2203.09C4075.75 2264.4 3960.12 2271.44 3848.71 2288.58C3714.39 2309.25 3573.55 2336.65 3425.54 2383.96C3269.03 2433.98 3104.8 2506.73 2957.99 2600.03C2853.33 2666.31 2759.85 2739.4 2668.91 2803.94C2654.53 2814.14 2640.88 2824.88 2626.35 2833.72C2215.36 3083.67 1928.72 2997.45 1921.27 3160.73" stroke="#F4E4BA" stroke-width="1"/>
<path d="M6760.11 1330.81C6703.06 1222.38 6503.09 1346.67 6048.7 1255.58C5962.52 1238.31 5878.14 1218.78 5796.27 1215.16C5546.07 1204.07 5360.66 1278.76 5163.79 1399.34C5000.08 1499.59 4832.87 1645.39 4629.93 1840.19C4608.78 1860.49 4588 1881.2 4567.05 1901.75C4459.83 2006.94 4345.32 2116.28 4220.57 2178.72C4092.22 2242.96 3978.46 2257.95 3868.88 2282C3736.33 2311.1 3598.24 2346.01 3453.72 2398.17C3300.24 2453.56 3139.95 2528.59 2995.01 2620.19C2891.37 2685.48 2797.7 2755.88 2705.96 2817.01C2691.44 2826.68 2677.57 2836.85 2662.93 2845.16C2240.11 3085.41 1947.2 2973.89 1940.42 3122.32" stroke="#F4E4BA" stroke-width="1"/>
<path d="M6760.71 1311.85C6709.36 1214.25 6514.29 1356.57 6054.79 1268.77C5969.32 1252.44 5886.03 1233.61 5805.36 1229.09C5557.94 1215.19 5372.26 1277.31 5172.8 1392C5009.83 1485.69 4841.93 1625.94 4637.81 1818.48C4616.74 1838.35 4596.04 1858.63 4575.2 1878.77C4468.49 1981.89 4355.67 2089.17 4234.01 2154.4C4108.7 2221.57 3996.83 2244.53 3889.08 2275.46C3758.31 2313.02 3622.98 2355.46 3481.92 2412.43C3331.49 2473.18 3175.12 2550.47 3032.07 2640.4C2929.45 2704.7 2835.57 2772.4 2743.06 2830.12C2728.39 2839.27 2714.31 2848.86 2699.59 2856.66C2264.84 3086.85 1965.73 2950.39 1959.63 3083.97" stroke="#F4E4BA" stroke-width="1"/>
<path d="M6761.31 1292.88C6715.67 1206.13 6525.5 1366.37 6060.89 1281.94C5976.13 1266.54 5893.94 1248.42 5814.46 1243C5569.82 1226.26 5383.91 1275.96 5181.82 1384.63C5019.63 1471.84 4851 1606.48 4645.69 1796.74C4624.7 1816.18 4604.08 1836.02 4583.35 1855.76C4477.14 1956.81 4366.03 2062.06 4247.45 2130.06C4125.18 2200.17 4015.19 2231.12 3909.26 2268.91C3780.28 2314.93 3647.7 2364.9 3510.12 2426.67C3362.75 2492.82 3210.29 2572.35 3069.11 2660.6C2967.51 2723.92 2873.43 2788.91 2780.12 2843.23C2765.3 2851.86 2751.02 2860.85 2736.19 2868.14C2289.45 3087.94 1984.2 2926.86 1978.78 3045.61" stroke="#F4E4BA" stroke-width="1"/>
<path d="M6761.9 1273.92C6721.96 1198.01 6536.72 1376.08 6066.98 1295.12C5982.93 1280.62 5901.82 1263.24 5823.54 1256.91C5581.7 1237.34 5395.59 1274.74 5190.82 1377.27C5029.43 1458.09 4860.07 1587.03 4653.55 1774.99C4632.65 1794 4612.1 1813.41 4591.47 1832.73C4485.79 1931.71 4376.38 2034.91 4260.87 2105.69C4141.65 2178.74 4033.59 2217.69 3929.43 2262.34C3802.28 2316.84 3672.44 2374.34 3538.28 2440.88C3394 2512.45 3245.42 2594.2 3106.12 2680.75C3005.53 2743.07 2911.26 2805.37 2817.15 2856.28C2802.18 2864.37 2787.69 2872.77 2772.77 2879.56C2313.97 3088.61 2002.65 2903.29 1997.91 3007.18" stroke="#F4E4BA" stroke-width="1"/>
<path d="M6762.51 1254.97C6728.27 1189.9 6547.95 1385.71 6073.09 1308.3C5989.75 1294.71 5909.74 1278.05 5832.64 1270.82C5593.57 1248.4 5407.3 1273.65 5199.84 1369.92C5039.25 1444.44 4869.18 1567.63 4661.43 1753.26C4640.61 1771.85 4620.14 1790.8 4599.61 1809.73C4494.44 1906.64 4386.86 2008.02 4274.29 2081.36C4158.27 2157.57 4051.99 2204.32 3949.6 2255.8C3824.29 2318.81 3697.2 2383.82 3566.46 2455.13C3425.28 2532.13 3280.58 2616.09 3143.15 2700.96C3043.58 2762.29 2949.09 2821.87 2854.2 2869.39C2839.09 2876.96 2824.39 2884.75 2809.37 2891.06C2338.52 3088.98 2021.14 2879.77 2017.07 2968.84" stroke="#F4E4BA" stroke-width="1"/>
<path d="M6763.11 1236C6734.58 1181.78 6559.19 1395.22 6079.18 1321.49C5996.55 1308.79 5917.64 1292.88 5841.73 1284.75C5605.47 1259.47 5419.02 1272.71 5208.85 1362.57C5049.07 1430.88 4878.29 1548.25 4669.3 1731.52C4648.58 1749.68 4628.16 1768.21 4607.74 1786.71C4503.08 1881.56 4397.21 1980.86 4287.72 2057C4174.74 2136.13 4070.43 2190.91 3969.78 2249.24C3846.36 2320.75 3721.99 2393.31 3594.66 2469.35C3456.6 2551.81 3315.74 2637.96 3180.2 2721.14C3081.66 2781.47 2986.96 2838.35 2891.29 2882.47C2876.03 2889.52 2861.13 2896.68 2846 2902.52C2363.08 3088.94 2039.64 2856.23 2036.25 2930.45" stroke="#F4E4BA" stroke-width="1"/>
<path d="M6763.7 1217.03C6740.89 1173.65 6570.41 1404.62 6085.28 1334.65C6003.38 1322.84 5925.53 1307.67 5850.82 1298.66C5617.35 1270.5 5430.76 1271.9 5217.88 1355.19C5058.91 1417.4 4887.45 1528.86 4677.19 1709.77C4656.56 1727.52 4636.21 1745.6 4615.91 1763.7C4511.75 1856.47 4407.57 1953.72 4301.17 2032.66C4191.24 2114.7 4088.9 2177.53 3989.99 2242.69C3868.47 2322.72 3746.83 2402.8 3622.86 2483.59C3487.97 2571.51 3350.92 2659.82 3217.24 2741.32C3119.72 2800.67 3024.82 2854.82 2928.37 2895.56C2912.96 2902.07 2897.86 2908.61 2882.62 2913.97C2387.68 3088.54 2058.14 2832.68 2055.44 2892.06" stroke="#F4E4BA" stroke-width="1"/>
<path d="M6764.3 1198.07C6747.19 1165.54 6581.64 1413.92 6091.37 1347.83C6010.17 1336.88 5933.45 1322.35 5859.91 1312.58C5629.3 1281.12 5442.47 1271.27 5226.88 1347.85C5068.69 1404.03 4896.58 1509.53 4685.06 1688.04C4664.51 1705.37 4644.24 1723.01 4624.04 1740.7C4520.4 1831.41 4417.92 1926.58 4314.61 2008.32C4207.71 2093.27 4107.38 2164.15 4010.16 2236.13C3890.58 2324.67 3771.68 2412.31 3651.05 2497.82C3519.33 2591.22 3386.07 2681.69 3254.28 2761.51C3157.77 2819.86 3062.6 2871.12 2965.43 2908.66C2949.87 2914.61 2934.57 2920.54 2919.24 2925.45C2412.33 3087.79 2076.63 2809.17 2074.61 2853.7" stroke="#F4E4BA" stroke-width="1"/>
<path d="M6764.9 1179.1C6753.48 1157.41 6592.87 1423.11 6097.47 1361C6016.97 1350.91 5941.35 1337.17 5869 1326.49C5641.18 1292.24 5454.2 1270.78 5235.9 1340.48C5078.46 1390.74 4905.76 1490.21 4692.93 1666.28C4672.48 1683.2 4652.28 1700.39 4632.17 1717.67C4529.03 1806.31 4428.25 1899.41 4328.02 1983.95C4224.15 2071.82 4125.86 2150.74 4030.32 2229.56C3912.69 2326.61 3796.52 2421.79 3679.21 2512.04C3550.7 2610.93 3421.2 2703.56 3291.28 2781.69C3195.79 2839.05 3100.44 2887.64 3002.47 2921.74C2986.76 2927.18 2971.27 2932.47 2955.82 2936.92C2437.01 3086.68 2095.09 2785.62 2093.74 2815.32" stroke="#F4E4BA" stroke-width="1"/>
<path d="M6765.51 1160.13C6759.81 1149.3 6604.11 1432.18 6103.59 1374.18C6023.8 1364.93 5949.28 1352.02 5878.12 1340.41C5653.09 1303.39 5465.91 1270.49 5244.94 1333.12C5088.2 1377.55 4915.19 1471.2 4700.83 1644.55C4680.49 1661.08 4660.34 1677.79 4640.34 1694.66C4537.7 1781.22 4438.63 1872.26 4341.48 1959.61C4240.67 2050.4 4144.53 2137.46 4050.53 2223.01C3935.02 2328.7 3821.62 2431.53 3707.44 2526.29C3582.36 2630.87 3456.41 2725.44 3328.37 2801.88C3233.9 2858.25 3138.37 2904.13 3039.58 2934.84C3023.71 2939.75 3008.04 2944.37 2992.46 2948.39C2461.87 3085.22 2113.61 2762.09 2112.93 2776.93" stroke="#F4E4BA" stroke-width="1"/>
<path d="M6766.11 1141.17C6766.11 1141.17 6615.31 1441.14 6109.68 1387.35C5604.05 1333.57 5329.97 1129.32 4708.69 1622.81C4087.42 2116.3 3645.59 2792.13 3076.63 2947.92C2507.66 3103.7 2132.09 2738.55 2132.09 2738.55" stroke="#F4E4BA" stroke-width="1"/>
<path d="M7021.56 870.197C6932.52 774.206 6781.1 757.869 6656.75 798.923C6532.41 839.977 6429.84 928.233 6335.61 1019.14C6140.7 1207.13 5965.55 1415.67 5760.58 1592.61C5555.6 1769.56 5313 1916.54 5044.33 1950.34C4879.14 1971.13 4710.15 1948.46 4546.05 1976.51C4217 2032.74 3958.9 2279.7 3667.03 2441.71C3446.2 2564.28 3313.08 2488.74 3115.91 2377.36C2924.5 2269.23 2692.94 2234.23 2478.12 2280.95C2263.3 2327.67 2067.21 2455.7 1938 2633.57" stroke="#F4E4BA" stroke-width="1"/>
<path d="M7019.34 852.426C6928.5 765.445 6776.11 754.304 6651.44 800.05C6526.62 846 6422.59 937.515 6325.64 1030.6C6129.64 1219.11 5950.85 1425.87 5742.58 1597.46C5535.33 1769.03 5291.74 1907.91 5022.92 1941.78C4858.31 1962.5 4690.26 1942.49 4527.2 1971.83C4200.4 2030.58 3942.96 2275.12 3652.19 2436.31C3432.61 2558.06 3297.49 2487.54 3100.08 2380.79C2909.51 2277 2679.87 2242.34 2468.67 2292.83C2257.75 2342.85 2066.62 2472.46 1938.99 2649.63" stroke="#F4E4BA" stroke-width="1"/>
<path d="M7017.14 834.635C6924.5 756.674 6771.14 750.702 6646.13 801.139C6520.83 851.99 6415.35 946.746 6315.69 1042.03C6118.57 1231.06 5935.79 1435.55 5724.61 1602.27C5514.72 1767.97 5270.49 1899.23 5001.53 1933.15C4837.48 1953.84 4670.4 1936.45 4508.36 1967.1C4183.83 2028.37 3927.04 2270.48 3637.37 2430.88C3419.04 2551.8 3281.63 2486.91 3084.27 2384.18C2894.24 2285.26 2666.8 2250.39 2459.2 2304.65C2252.18 2357.97 2066.01 2489.16 1939.97 2665.63" stroke="#F4E4BA" stroke-width="1"/>
<path d="M7014.92 816.848C6920.49 747.892 6766.16 747.116 6640.81 802.249C6515.03 857.997 6408.09 956.012 6305.72 1053.47C6107.5 1243.02 5920.92 1445.5 5706.61 1607.09C5494.3 1767.18 5249.22 1890.57 4980.1 1924.54C4816.63 1945.17 4650.51 1930.43 4489.5 1962.39C4167.22 2026.18 3911.08 2265.85 3622.53 2425.46C3405.45 2545.56 3265.92 2485.99 3068.42 2387.61C2879.09 2293.29 2653.85 2259.02 2449.71 2316.52C2246.75 2373.68 2065.38 2505.93 1940.93 2681.69" stroke="#F4E4BA" stroke-width="1"/>
<path d="M7012.71 799.056C6916.49 739.12 6761.17 743.518 6635.49 803.357C6509.24 864 6400.84 965.261 6295.76 1064.92C6096.43 1255 5906.09 1455.48 5688.63 1611.92C5473.91 1766.41 5227.98 1881.9 4958.7 1915.93C4795.79 1936.51 4630.63 1924.4 4470.66 1957.67C4150.64 2023.98 3895.15 2261.22 3607.71 2420.03C3391.87 2539.3 3250.23 2485.02 3052.61 2391C2864.02 2301.27 2640.87 2267.25 2440.25 2328.35C2241.25 2388.96 2064.79 2522.64 1941.92 2697.7" stroke="#F4E4BA" stroke-width="1"/>
<path d="M7010.49 781.288C6912.49 730.357 6756.2 739.951 6630.17 804.487C6503.43 870.032 6393.58 974.547 6285.78 1076.4C6085.34 1267 5891.26 1465.48 5670.62 1616.78C5453.53 1765.67 5206.69 1873.29 4937.27 1907.36C4774.94 1927.89 4610.72 1918.43 4451.79 1952.99C4134.04 2021.81 3879.18 2256.62 3592.86 2414.64C3378.27 2533.09 3234.54 2484.11 3036.78 2394.45C2848.92 2309.29 2627.84 2275.51 2430.78 2340.24C2235.75 2404.3 2064.18 2539.41 1942.9 2713.79" stroke="#F4E4BA" stroke-width="1"/>
<path d="M7008.29 763.495C6908.49 721.583 6751.06 736.072 6624.87 805.587C6497.49 875.754 6386.35 983.803 6275.84 1087.83C6074.29 1278.95 5876.47 1475.44 5652.66 1621.6C5433.2 1764.92 5185.46 1864.61 4915.91 1898.76C4754.14 1919.23 4590.88 1912.41 4432.97 1948.27C4117.48 2019.62 3863.27 2252 3578.06 2409.21C3364.72 2526.84 3218.92 2483.14 3020.99 2397.86C2833.9 2317.25 2614.88 2283.72 2421.35 2352.09C2230.28 2419.59 2063.62 2556.16 1943.91 2729.82" stroke="#F4E4BA" stroke-width="1"/>
<path d="M7006.06 745.707C6904.48 712.801 6746.06 732.464 6619.55 806.698C6491.67 881.739 6379.09 993.055 6265.87 1099.29C6063.21 1290.93 5861.68 1485.45 5634.66 1626.44C5412.86 1764.17 5164.18 1855.97 4894.48 1890.16C4733.29 1910.58 4570.98 1906.4 4414.11 1943.56C4100.88 2017.43 3847.32 2247.39 3563.21 2403.79C3351.12 2520.6 3203.29 2482.17 3005.14 2401.27C2818.83 2325.2 2601.85 2291.93 2411.85 2363.93C2224.75 2434.85 2062.98 2572.89 1944.86 2745.86" stroke="#F4E4BA" stroke-width="1"/>
<path d="M7003.86 727.918C6900.49 704.031 6741.05 728.86 6614.23 807.807C6485.85 887.742 6371.63 1002.07 6255.91 1110.73C6051.75 1302.46 5846.92 1495.45 5616.68 1631.25C5392.56 1763.45 5142.94 1847.31 4873.08 1881.54C4712.45 1901.91 4551.1 1900.37 4395.27 1938.85C4084.29 2015.22 3831.38 2242.75 3548.38 2398.36C3337.54 2514.36 3187.66 2481.18 2989.31 2404.68C2803.81 2333.13 2588.85 2300.1 2402.39 2375.78C2219.26 2450.1 2062.39 2589.61 1945.84 2761.89" stroke="#F4E4BA" stroke-width="1"/>
<path d="M7001.66 710.14C6896.48 695.264 6736.07 725.262 6608.93 808.927C6480.05 893.75 6364.36 1011.32 6245.96 1122.19C6040.67 1314.42 5832.21 1505.49 5598.7 1636.1C5372.28 1762.74 5121.67 1838.66 4851.68 1872.96C4691.63 1893.28 4531.23 1894.37 4376.42 1934.15C4067.7 2013.04 3815.44 2238.16 3533.54 2392.97C3323.96 2508.14 3172.06 2480.2 2973.49 2408.11C2788.79 2341.08 2575.86 2308.3 2392.92 2387.65C2213.76 2465.35 2061.78 2606.38 1946.81 2777.94" stroke="#F4E4BA" stroke-width="1"/>
<path d="M6999.44 692.354C6892.47 686.497 6731.06 721.655 6603.61 810.034C6474.24 899.744 6357.1 1020.56 6236 1133.64C6029.59 1326.36 5817.49 1515.54 5580.73 1640.93C5352.03 1762.06 5100.43 1830.01 4830.29 1864.37C4670.8 1884.63 4511.36 1888.36 4357.59 1929.44C4051.13 2010.85 3799.51 2233.53 3518.73 2387.56C3310.39 2501.91 3156.5 2479.18 2957.68 2411.54C2773.8 2348.98 2562.87 2316.48 2383.46 2399.52C2208.27 2480.6 2061.19 2623.14 1947.8 2794.01" stroke="#F4E4BA" stroke-width="1"/>
<path d="M6997.23 674.564C6888.47 677.712 6726.07 718.058 6598.3 811.142C6468.42 905.746 6349.84 1029.81 6226.04 1145.08C6018.51 1338.31 5802.77 1525.58 5562.74 1645.76C5331.76 1761.38 5079.17 1821.34 4808.88 1855.77C4649.97 1875.97 4491.47 1882.34 4338.74 1924.73C4034.54 2008.66 3783.57 2228.91 3503.9 2382.13C3296.81 2495.65 3140.93 2478.13 2941.86 2414.95C2758.82 2356.85 2549.87 2324.62 2374 2411.35C2202.78 2495.8 2060.59 2639.85 1948.79 2810.02" stroke="#F4E4BA" stroke-width="1"/>
<path d="M6995.01 656.775C6884.46 668.943 6721.08 714.478 6592.98 812.253C6462.6 911.758 6342.57 1039.07 6216.07 1156.54C6007.43 1350.28 5788.07 1535.67 5544.74 1650.59C5311.51 1760.75 5057.9 1812.7 4787.45 1847.17C4629.11 1867.33 4471.57 1876.34 4319.88 1920.03C4017.93 2006.48 3767.61 2224.3 3489.06 2376.72C3283.22 2489.43 3125.37 2477.07 2926.02 2418.37C2743.84 2364.72 2536.86 2332.76 2364.53 2423.22C2197.27 2511 2059.99 2656.61 1949.76 2826.08" stroke="#F4E4BA" stroke-width="1"/>
<path d="M6992.81 639C6880.47 660.187 6716.1 710.895 6587.67 813.375C6456.81 917.782 6335.33 1048.33 6206.11 1167.99C5996.37 1362.25 5773.4 1545.78 5526.76 1655.42C5291.29 1760.1 5036.65 1804.04 4766.07 1838.56C4608.3 1858.67 4451.71 1870.31 4301.04 1915.32C4001.37 2004.28 3751.68 2219.68 3474.24 2371.29C3269.65 2483.17 3109.83 2475.97 2910.22 2421.77C2728.9 2372.54 2523.87 2340.86 2355.07 2435.05C2191.78 2526.17 2059.38 2673.33 1950.75 2842.09" stroke="#F4E4BA" stroke-width="1"/>
<path d="M6990.59 621.213C6876.46 651.406 6711.11 707.316 6582.36 814.482C6451.01 923.804 6328.08 1057.58 6196.16 1179.44C5985.3 1374.22 5758.74 1555.9 5508.77 1660.25C5271.07 1759.5 5015.39 1795.39 4744.66 1829.96C4587.46 1850.01 4431.83 1864.31 4282.19 1910.6C3984.77 2002.08 3735.74 2215.06 3459.41 2365.87C3256.06 2476.93 3094.31 2474.86 2894.39 2425.19C2713.95 2380.37 2510.87 2348.97 2345.59 2446.92C2186.27 2541.34 2058.76 2690.08 1951.71 2858.14" stroke="#F4E4BA" stroke-width="1"/>
<path d="M6988.38 603.424C6872.47 642.636 6706.13 703.734 6577.04 815.577C6445.21 929.801 6320.82 1066.82 6186.19 1190.88C5974.25 1386.2 5744.08 1566.04 5490.8 1665.08C5250.88 1758.91 4994.15 1786.74 4723.27 1821.37C4566.65 1841.38 4411.97 1858.29 4263.36 1905.9C3968.2 1999.9 3719.81 2210.44 3444.6 2360.45C3242.5 2470.68 3078.8 2473.72 2878.58 2428.6C2699.04 2388.14 2497.87 2357.06 2336.16 2458.77C2180.77 2556.5 2058.21 2706.83 1952.73 2874.19" stroke="#F4E4BA" stroke-width="1"/>
<path d="M6986.16 585.636C6868.45 633.853 6701.13 700.153 6571.71 816.688C6439.4 935.827 6313.56 1076.08 6176.22 1202.32C5963.17 1398.16 5729.42 1576.19 5472.79 1669.91C5230.64 1758.33 4972.87 1778.07 4701.84 1812.76C4545.78 1832.71 4392.07 1852.28 4244.5 1901.19C3951.6 1997.69 3703.86 2205.82 3429.75 2355.04C3228.9 2464.45 3063.28 2472.56 2862.75 2432.03C2684.09 2395.91 2484.84 2365.14 2326.68 2470.63C2175.24 2571.63 2057.58 2723.57 1953.68 2890.23" stroke="#F4E4BA" stroke-width="1"/>
<path d="M6983.96 567.859C6864.45 625.101 6696.18 696.592 6566.41 817.809C6433.62 941.858 6306.32 1085.36 6166.27 1213.79C5952.13 1410.15 5714.79 1586.39 5454.83 1674.75C5210.47 1757.79 4951.62 1769.43 4680.45 1804.17C4524.96 1824.06 4372.19 1846.27 4225.66 1896.49C3935.01 1995.51 3687.92 2201.2 3414.91 2349.62C3215.32 2458.21 3047.77 2471.36 2846.9 2435.44C2669.15 2403.64 2471.78 2373.19 2317.18 2482.49C2169.69 2586.76 2056.95 2740.31 1954.64 2906.28" stroke="#F4E4BA" stroke-width="1"/>
<path d="M6981.74 550.075C6860.44 616.323 6691.18 693.015 6561.08 818.924C6427.81 947.888 6299.06 1094.63 6156.3 1225.25C5941.07 1422.16 5700.14 1596.62 5436.82 1679.59C5190.27 1757.27 4930.35 1760.78 4659.03 1795.57C4504.11 1815.43 4352.3 1840.27 4206.79 1891.78C3918.41 1993.33 3671.96 2196.59 3400.07 2344.21C3201.73 2451.97 3032.26 2470.15 2831.07 2438.87C2654.22 2411.36 2458.73 2381.24 2307.71 2494.34C2164.14 2601.87 2056.35 2757.06 1955.62 2922.32" stroke="#F4E4BA" stroke-width="1"/>
<path d="M6979.53 532.284C6856.44 607.551 6686.22 689.439 6555.78 820.025C6422.05 953.913 6292.11 1104.18 6146.35 1236.68C5930.42 1434.56 5685.53 1606.84 5418.86 1684.39C5170.1 1756.74 4909.11 1752.11 4637.65 1786.96C4483.3 1806.76 4332.43 1834.24 4187.97 1887.05C3901.84 1991.12 3656.05 2191.96 3385.27 2338.79C3188.18 2445.72 3016.79 2468.89 2815.28 2442.27C2639.35 2419.04 2445.72 2389.25 2298.28 2506.19C2158.62 2616.95 2055.78 2773.79 1956.63 2938.35" stroke="#F4E4BA" stroke-width="1"/>
<path d="M6977.32 514.49C6852.44 598.763 6681.51 686.1 6550.47 821.13C6416.52 960.181 6284.86 1113.42 6136.4 1248.13C5919.37 1446.53 5670.9 1617.1 5400.88 1689.24C5149.92 1756.27 4887.86 1743.46 4616.24 1778.37C4462.46 1798.12 4312.56 1828.25 4169.12 1882.37C3885.26 1988.95 3640.1 2187.36 3370.43 2333.38C3174.59 2439.5 3001.3 2467.62 2799.46 2445.71C2624.43 2426.72 2432.65 2397.29 2288.8 2518.06C2153.05 2632.05 2055.17 2790.54 1957.6 2954.41" stroke="#F4E4BA" stroke-width="1"/>
<path d="M6975.11 496.719C6848.44 590.01 6676.53 682.531 6545.15 822.258C6410.71 966.21 6277.61 1122.71 6126.43 1259.58C5908.29 1458.51 5656.27 1627.39 5382.89 1694.07C5129.74 1755.82 4866.59 1734.81 4594.85 1769.77C4441.64 1789.45 4292.68 1822.23 4150.29 1877.65C3868.68 1986.75 3624.17 2182.74 3355.62 2327.96C3161.02 2433.25 2985.82 2466.28 2783.64 2449.13C2609.52 2434.33 2419.57 2405.3 2279.36 2529.92C2147.49 2647.12 2054.59 2807.28 1958.6 2970.45" stroke="#F4E4BA" stroke-width="1"/>
<path d="M6972.9 478.928C6844.44 581.225 6671.55 678.933 6539.83 823.365C6404.93 972.227 6270.36 1131.96 6116.47 1271.04C5897.23 1470.48 5641.64 1637.69 5364.9 1698.9C5109.56 1755.38 4845.34 1726.16 4573.44 1761.17C4420.79 1780.81 4272.81 1816.22 4131.43 1872.94C3852.09 1984.56 3608.23 2178.11 3340.78 2322.53C3147.43 2427 2970.31 2464.91 2767.81 2452.52C2594.6 2441.92 2406.45 2413.25 2269.88 2541.75C2141.87 2662.18 2053.96 2824.02 1959.56 2986.48" stroke="#F4E4BA" stroke-width="1"/>
<path d="M6970.68 461.143C6840.43 572.459 6666.57 675.349 6534.52 824.472C6399.13 978.236 6263.11 1141.22 6106.51 1282.49C5886.16 1482.46 5627.01 1648.02 5346.93 1703.73C5089.39 1754.96 4824.1 1717.5 4552.04 1752.56C4399.97 1772.15 4252.93 1810.19 4112.6 1868.22C3835.51 1982.36 3592.3 2173.49 3325.97 2317.11C3133.87 2420.75 2954.82 2463.51 2752.01 2455.93C2579.7 2449.48 2393.36 2421.24 2260.43 2553.6C2136.29 2677.2 2053.38 2840.74 1960.57 3002.5" stroke="#F4E4BA" stroke-width="1"/>
<path d="M6968.47 443.351C6836.43 563.673 6661.58 671.751 6529.21 825.58C6393.34 984.239 6255.86 1150.47 6096.55 1293.93C5875.1 1494.4 5612.38 1658.37 5328.93 1708.55C5069.19 1754.55 4802.83 1708.84 4530.63 1743.96C4379.12 1763.49 4233.04 1804.17 4093.74 1863.51C3818.91 1980.16 3576.34 2168.87 3311.12 2311.68C3120.27 2414.5 2939.29 2462.08 2736.16 2459.34C2564.74 2457.02 2380.2 2429.2 2250.93 2565.46C2130.63 2692.25 2052.75 2857.48 1961.51 3018.56" stroke="#F4E4BA" stroke-width="1"/>
<path d="M6966.26 425.58C6832.42 554.926 6656.61 668.182 6523.89 826.707C6387.54 990.263 6248.61 1159.75 6086.59 1305.4C5864.02 1506.39 5597.74 1668.76 5310.96 1713.41C5049.01 1754.19 4781.58 1700.2 4509.23 1735.39C4358.31 1754.88 4213.17 1798.2 4074.9 1858.84C3802.33 1978 3560.41 2164.28 3296.3 2306.31C3106.7 2408.3 2923.79 2460.67 2720.36 2462.8C2549.82 2464.58 2367.07 2437.21 2241.5 2577.34C2125.02 2707.32 2052.18 2874.27 1962.52 3034.63" stroke="#F4E4BA" stroke-width="1"/>
<path d="M6964.05 407.789C6828.42 546.141 6651.63 664.579 6518.58 827.815C6381.74 996.272 6241.36 1169 6076.63 1316.84C5852.96 1518.35 5583.1 1679.15 5292.96 1718.23C5028.8 1753.81 4760.31 1691.55 4487.82 1726.78C4337.45 1746.21 4193.27 1792.16 4056.05 1854.11C3785.73 1975.8 3544.47 2159.65 3281.46 2300.88C3093.1 2402.05 2908.23 2459.17 2704.52 2466.2C2534.86 2472.06 2353.89 2445.15 2232.01 2589.18C2119.34 2722.34 2051.56 2890.99 1963.47 3050.65" stroke="#F4E4BA" stroke-width="1"/>
<path d="M6961.83 390.003C6824.41 537.375 6646.64 661 6513.26 828.908C6375.95 1002.26 6234.11 1178.25 6066.65 1328.28C5841.87 1530.32 5568.43 1689.55 5274.96 1723.05C5008.58 1753.46 4739.03 1682.88 4466.39 1718.17C4316.6 1737.54 4173.37 1786.15 4037.18 1849.39C3769.13 1973.59 3528.5 2155.01 3266.6 2295.44C3079.5 2395.8 2892.67 2457.62 2688.68 2469.59C2519.86 2479.51 2340.68 2453.08 2222.52 2601.01C2113.64 2737.35 2050.92 2907.7 1964.43 3066.67" stroke="#F4E4BA" stroke-width="1"/>
<path d="M6959.62 372.212C6820.41 528.588 6641.67 657.397 6507.95 830.015C6370.15 1008.27 6226.86 1187.51 6056.7 1339.73C5830.82 1542.29 5553.78 1699.99 5256.98 1727.88C4988.38 1753.13 4717.79 1674.22 4445 1709.58C4295.77 1728.91 4153.51 1780.14 4018.34 1844.69C3752.55 1971.41 3512.58 2150.4 3251.78 2290.04C3065.93 2389.58 2877.11 2456.08 2672.85 2473.03C2504.89 2486.97 2327.47 2461.05 2213.06 2612.89C2107.95 2752.4 2050.34 2924.47 1965.42 3082.73" stroke="#F4E4BA" stroke-width="1"/>
<path d="M6957.42 354.435C6816.42 519.831 6636.71 653.821 6502.64 831.136C6364.38 1014.3 6219.62 1196.77 6046.74 1351.18C5819.75 1554.26 5539.15 1711.03 5239 1732.73C4968.2 1753.36 4696.53 1665.59 4423.61 1700.99C4274.96 1720.26 4133.65 1774.14 3999.51 1840C3735.98 1969.24 3496.66 2145.81 3236.97 2284.63C3052.37 2383.35 2861.54 2454.49 2657.06 2476.46C2489.92 2494.4 2314.26 2469.01 2203.62 2624.76C2102.27 2767.44 2049.76 2941.23 1966.43 3098.8" stroke="#F4E4BA" stroke-width="1"/>
<path d="M6955.2 336.647C6812.41 511.062 6631.71 650.227 6497.31 832.247C6358.56 1020.31 6212.36 1206.04 6036.77 1362.64C5808.68 1566.24 5524.44 1721.22 5221.01 1737.56C4947.94 1752.8 4675.27 1656.93 4402.2 1692.38C4254.11 1711.6 4113.75 1768.12 3980.66 1835.28C3719.38 1967.04 3480.72 2141.17 3222.14 2279.21C3038.79 2377.1 2845.93 2452.87 2641.24 2479.87C2474.91 2501.81 2300.81 2476.83 2194.15 2636.61C2096.35 2782.34 2049.16 2957.96 1967.41 3114.82" stroke="#F4E4BA" stroke-width="1"/>
<path d="M6952.99 318.857C6808.41 502.277 6626.74 646.638 6492.01 833.35C6352.78 1026.31 6205.12 1215.29 6026.83 1374.08C5797.63 1578.21 5509.77 1731.41 5203.04 1742.38C4927.69 1752.23 4654.02 1648.28 4380.8 1683.78C4233.3 1702.95 4093.88 1762.11 3961.83 1830.56C3702.82 1964.84 3464.79 2136.55 3207.32 2273.77C3025.22 2370.84 2830.31 2451.2 2625.41 2483.26C2459.87 2509.17 2287.73 2484.89 2184.68 2648.44C2090.78 2797.48 2048.55 2974.69 1968.38 3130.84" stroke="#F4E4BA" stroke-width="1"/>
</g>
</svg>
