<svg width="149" height="224" viewBox="0 0 149 224" fill="none" xmlns="http://www.w3.org/2000/svg">
<path d="M62.9706 0.772222C62.754 0.3 62.2819 0 61.7599 0C61.2379 0 60.7659 0.3 60.5493 0.772222L57.2449 7.92778L50.0919 11.2333C49.6199 11.45 49.3199 11.9222 49.3199 12.4444C49.3199 12.9667 49.6199 13.4389 50.0919 13.6556L57.2449 16.9611L60.5493 24.1167C60.7659 24.5889 61.2379 24.8889 61.7599 24.8889C62.2819 24.8889 62.754 24.5889 62.9706 24.1167L66.275 16.9611L73.428 13.6556C73.9 13.4389 74.2 12.9667 74.2 12.4444C74.2 11.9222 73.9 11.45 73.428 11.2333L66.275 7.92778L62.9706 0.772222Z" fill="#F4E4BA"/>
<path d="M137.611 0.772222C137.394 0.3 136.922 0 136.4 0C135.878 0 135.406 0.3 135.189 0.772222L131.885 7.92778L124.732 11.2333C124.26 11.45 123.96 11.9222 123.96 12.4444C123.96 12.9667 124.26 13.4389 124.732 13.6556L131.885 16.9611L135.189 24.1167C135.406 24.5889 135.878 24.8889 136.4 24.8889C136.922 24.8889 137.394 24.5889 137.611 24.1167L140.915 16.9611L148.068 13.6556C148.54 13.4389 148.84 12.9667 148.84 12.4444C148.84 11.9222 148.54 11.45 148.068 11.2333L140.915 7.92778L137.611 0.772222Z" fill="#F4E4BA"/>
<path d="M25.6506 50.55C25.434 50.0778 24.962 49.7778 24.4399 49.7778C23.9179 49.7778 23.4458 50.0778 23.2292 50.55L19.9249 57.7056L12.7719 61.0111C12.2998 61.2278 12 61.7 12 62.2222C12 62.7444 12.2998 63.2167 12.7719 63.4333L19.9249 66.7389L23.2292 73.8944C23.4458 74.3667 23.9179 74.6667 24.4399 74.6667C24.962 74.6667 25.434 74.3667 25.6506 73.8944L28.955 66.7389L36.108 63.4333C36.5801 63.2167 36.88 62.7444 36.88 62.2222C36.88 61.7 36.5801 61.2278 36.108 61.0111L28.955 57.7056L25.6506 50.55Z" fill="#F4E4BA"/>
<path d="M100.291 50.55C100.074 50.0778 99.602 49.7778 99.08 49.7778C98.5579 49.7778 98.0859 50.0778 97.8693 50.55L94.5649 57.7056L87.4119 61.0111C86.9398 61.2278 86.6399 61.7 86.6399 62.2222C86.6399 62.7444 86.9398 63.2167 87.4119 63.4333L94.5649 66.7389L97.8693 73.8944C98.0859 74.3667 98.5579 74.6667 99.08 74.6667C99.602 74.6667 100.074 74.3667 100.291 73.8944L103.595 66.7389L110.748 63.4333C111.22 63.2167 111.52 62.7444 111.52 62.2222C111.52 61.7 111.22 61.2278 110.748 61.0111L103.595 57.7056L100.291 50.55Z" fill="#F4E4BA"/>
<path d="M62.9706 100.328C62.754 99.8556 62.2819 99.5556 61.7599 99.5556C61.2379 99.5556 60.7659 99.8556 60.5493 100.328L57.2449 107.483L50.0919 110.789C49.6199 111.006 49.3199 111.478 49.3199 112C49.3199 112.522 49.6199 112.994 50.0919 113.211L57.2449 116.517L60.5493 123.672C60.7659 124.144 61.2379 124.444 61.7599 124.444C62.2819 124.444 62.754 124.144 62.9706 123.672L66.275 116.517L73.428 113.211C73.9 112.994 74.2 112.522 74.2 112C74.2 111.478 73.9 111.006 73.428 110.789L66.275 107.483L62.9706 100.328Z" fill="#F4E4BA"/>
<path d="M137.611 100.328C137.394 99.8556 136.922 99.5556 136.4 99.5556C135.878 99.5556 135.406 99.8556 135.189 100.328L131.885 107.483L124.732 110.789C124.26 111.006 123.96 111.478 123.96 112C123.96 112.522 124.26 112.994 124.732 113.211L131.885 116.517L135.189 123.672C135.406 124.144 135.878 124.444 136.4 124.444C136.922 124.444 137.394 124.144 137.611 123.672L140.915 116.517L148.068 113.211C148.54 112.994 148.84 112.522 148.84 112C148.84 111.478 148.54 111.006 148.068 110.789L140.915 107.483L137.611 100.328Z" fill="#F4E4BA"/>
<path d="M25.6506 150.106C25.434 149.633 24.962 149.333 24.4399 149.333C23.9179 149.333 23.4458 149.633 23.2292 150.106L19.9249 157.261L12.7719 160.567C12.2998 160.783 12 161.256 12 161.778C12 162.3 12.2998 162.772 12.7719 162.989L19.9249 166.294L23.2292 173.45C23.4458 173.922 23.9179 174.222 24.4399 174.222C24.962 174.222 25.434 173.922 25.6506 173.45L28.955 166.294L36.108 162.989C36.5801 162.772 36.88 162.3 36.88 161.778C36.88 161.256 36.5801 160.783 36.108 160.567L28.955 157.261L25.6506 150.106Z" fill="#F4E4BA"/>
<path d="M100.291 150.106C100.074 149.633 99.602 149.333 99.08 149.333C98.5579 149.333 98.0859 149.633 97.8693 150.106L94.5649 157.261L87.4119 160.567C86.9398 160.783 86.6399 161.256 86.6399 161.778C86.6399 162.3 86.9398 162.772 87.4119 162.989L94.5649 166.294L97.8693 173.45C98.0859 173.922 98.5579 174.222 99.08 174.222C99.602 174.222 100.074 173.922 100.291 173.45L103.595 166.294L110.748 162.989C111.22 162.772 111.52 162.3 111.52 161.778C111.52 161.256 111.22 160.783 110.748 160.567L103.595 157.261L100.291 150.106Z" fill="#F4E4BA"/>
<path d="M137.611 199.883C137.394 199.411 136.922 199.111 136.4 199.111C135.878 199.111 135.406 199.411 135.189 199.883L131.885 207.039L124.732 210.344C124.26 210.561 123.96 211.033 123.96 211.556C123.96 212.078 124.26 212.55 124.732 212.767L131.885 216.072L135.189 223.228C135.406 223.7 135.878 224 136.4 224C136.922 224 137.394 223.7 137.611 223.228L140.915 216.072L148.068 212.767C148.54 212.55 148.84 212.078 148.84 211.556C148.84 211.033 148.54 210.561 148.068 210.344L140.915 207.039L137.611 199.883Z" fill="#F4E4BA"/>
</svg>