<svg width="60" height="80" viewBox="0 0 60 80" fill="none" xmlns="http://www.w3.org/2000/svg">
<path d="M9 15L0.726562 12.9328C0.3 12.825 0 12.4406 0 12C0 11.5594 0.3 11.175 0.726562 11.0672L9 9L11.0672 0.726562C11.175 0.3 11.5594 0 12 0C12.4406 0 12.825 0.3 12.9328 0.726562L15 9L23.2734 11.0672C23.7 11.175 24 11.5594 24 12C24 12.4406 23.7 12.825 23.2734 12.9328L15 15L12.9328 23.2734C12.825 23.7 12.4406 24 12 24C11.5594 24 11.175 23.7 11.0672 23.2734L9 15Z" fill="#F4E4BA"/>
<path d="M37 55L28.7266 52.9328C28.3 52.825 28 52.4406 28 52C28 51.5594 28.3 51.175 28.7266 51.0672L37 49L39.0672 40.7266C39.175 40.3 39.5594 40 40 40C40.4406 40 40.825 40.3 40.9328 40.7266L43 49L51.2734 51.0672C51.7 51.175 52 51.5594 52 52C52 52.4406 51.7 52.825 51.2734 52.9328L43 55L40.9328 63.2734C40.825 63.7 40.4406 64 40 64C39.5594 64 39.175 63.7 39.0672 63.2734L37 55Z" fill="#F4E4BA"/>
</svg>
